<?xml version="1.0" encoding="utf-8"?>
<!-- Generator: Adobe Illustrator 19.0.0, SVG Export Plug-In . SVG Version: 6.00 Build 0)  -->
<svg version="1.1" id="Слой_1" xmlns="http://www.w3.org/2000/svg" xmlns:xlink="http://www.w3.org/1999/xlink" x="0px" y="0px"
	 width="23.777px" height="19.58px" viewBox="0 0 23.777 19.58" enable-background="new 0 0 23.777 19.58" xml:space="preserve">
<g id="XMLID_20_">
	<path id="XMLID_18_" fill="none" stroke="#425058" stroke-width="2" stroke-miterlimit="10" d="M113.277,14.591
		c0-5.14-4.262-9.321-9.5-9.321c-5.239,0-9.5,4.182-9.5,9.321"/>
	<path id="XMLID_16_" fill="none" stroke="#425058" stroke-width="2" stroke-miterlimit="10" d="M103.776,2.873
		c2.786,0,5.053-2.224,5.053-4.958c0-2.734-2.267-4.958-5.053-4.958c-2.786,0-5.053,2.224-5.053,4.958
		C98.723,0.649,100.99,2.873,103.776,2.873z"/>
	
		<path id="XMLID_2_" fill-rule="evenodd" clip-rule="evenodd" fill="none" stroke="#73C400" stroke-width="1.5" stroke-miterlimit="10" d="
		M96.276-14.043h15c10.493,0,19,8.507,19,19s-8.507,19-19,19h-15c-10.493,0-19-8.507-19-19S85.783-14.043,96.276-14.043z"/>
</g>
<g id="XMLID_1_">
	
		<path id="XMLID_6_" fill-rule="evenodd" clip-rule="evenodd" fill="none" stroke="#FFFFFF" stroke-width="1.5" stroke-miterlimit="10" d="
		M14.985,15.563c0,0.908,0,1.473,0,1.473c0,0.991-0.787,1.794-1.759,1.794H2.508c-0.971,0-1.758-0.803-1.758-1.794V2.544
		c0-0.991,0.787-1.794,1.758-1.794h10.718c0.971,0,1.759,0.803,1.759,1.794c0,0,0,3.366,0,6.854"/>
	
		<path id="XMLID_14_" fill-rule="evenodd" clip-rule="evenodd" fill="none" stroke="#FFFFFF" stroke-width="1.5" stroke-miterlimit="10" d="
		M19.093,17.893l0.167-8.968"/>
	
		<path id="XMLID_12_" fill-rule="evenodd" clip-rule="evenodd" fill="none" stroke="#FFFFFF" stroke-width="1.5" stroke-miterlimit="10" d="
		M14.818,13.306h8.96"/>
	
		<path id="XMLID_10_" fill-rule="evenodd" clip-rule="evenodd" fill="none" stroke="#FFFFFF" stroke-width="1.5" stroke-miterlimit="10" d="
		M2.508,8.821H8.83"/>
	
		<path id="XMLID_8_" fill-rule="evenodd" clip-rule="evenodd" fill="none" stroke="#FFFFFF" stroke-width="1.5" stroke-miterlimit="10" d="
		M2.508,5.234h10.718"/>
</g>
</svg>
