<?xml version="1.0" encoding="utf-8"?>
<!-- Generator: Adobe Illustrator 19.0.0, SVG Export Plug-In . SVG Version: 6.00 Build 0)  -->
<svg version="1.1" id="Слой_1" xmlns="http://www.w3.org/2000/svg" xmlns:xlink="http://www.w3.org/1999/xlink" x="0px" y="0px"
	 width="21px" height="22.635px" viewBox="0 0 21 22.635" enable-background="new 0 0 21 22.635" xml:space="preserve">
<g id="XMLID_20_">
	<path id="XMLID_18_" fill="none" stroke="#425058" stroke-width="2" stroke-miterlimit="10" d="M20,22.635
		c0-5.14-4.262-9.321-9.5-9.321S1,17.495,1,22.635"/>
	<path id="XMLID_16_" fill="none" stroke="#425058" stroke-width="2" stroke-miterlimit="10" d="M10.5,10.916
		c2.786,0,5.053-2.224,5.053-4.958C15.554,3.224,13.287,1,10.5,1C7.714,1,5.447,3.224,5.447,5.958
		C5.447,8.692,7.714,10.916,10.5,10.916z"/>
</g>
<g id="XMLID_1_">
	
		<path id="XMLID_6_" fill-rule="evenodd" clip-rule="evenodd" fill="none" stroke="#FFFFFF" stroke-width="1.5" stroke-miterlimit="10" d="
		M-78.291,23.607c0,0.908,0,1.473,0,1.473c0,0.991-0.787,1.794-1.758,1.794h-10.718c-0.971,0-1.758-0.803-1.758-1.794V10.587
		c0-0.991,0.787-1.794,1.758-1.794h10.718c0.971,0,1.758,0.803,1.758,1.794c0,0,0,3.366,0,6.854"/>
	
		<path id="XMLID_14_" fill-rule="evenodd" clip-rule="evenodd" fill="none" stroke="#FFFFFF" stroke-width="1.5" stroke-miterlimit="10" d="
		M-74.183,25.936l0.168-8.968"/>
	
		<path id="XMLID_12_" fill-rule="evenodd" clip-rule="evenodd" fill="none" stroke="#FFFFFF" stroke-width="1.5" stroke-miterlimit="10" d="
		M-78.458,21.349h8.96"/>
	
		<path id="XMLID_10_" fill-rule="evenodd" clip-rule="evenodd" fill="none" stroke="#FFFFFF" stroke-width="1.5" stroke-miterlimit="10" d="
		M-90.768,16.865h6.322"/>
	
		<path id="XMLID_8_" fill-rule="evenodd" clip-rule="evenodd" fill="none" stroke="#FFFFFF" stroke-width="1.5" stroke-miterlimit="10" d="
		M-90.768,13.277h10.718"/>
</g>
</svg>
