<?xml version="1.0" encoding="utf-8"?>
<!-- Generator: Adobe Illustrator 19.0.0, SVG Export Plug-In . SVG Version: 6.00 Build 0)  -->
<svg version="1.1" id="Слой_1" xmlns="http://www.w3.org/2000/svg" xmlns:xlink="http://www.w3.org/1999/xlink" x="0px" y="0px"
	 width="42.002px" height="42.013px" viewBox="0 0 42.002 42.013" enable-background="new 0 0 42.002 42.013" xml:space="preserve">
<path fill="#009999" d="M41.599,31.383l0.001,0.001c0.001,0.002,0.003,0.004,0.004,0.007c0.113,0.128,0.196,0.282,0.262,0.445
	c0.021,0.05,0.035,0.097,0.05,0.148c0.038,0.125,0.062,0.255,0.07,0.391c0.004,0.05,0.012,0.097,0.01,0.148
	c0,0.026,0.007,0.05,0.005,0.076c-0.009,0.157-0.041,0.308-0.089,0.451c-0.004,0.015-0.014,0.027-0.02,0.042
	c-0.058,0.157-0.14,0.296-0.238,0.423c-0.014,0.018-0.018,0.041-0.033,0.059l-6.767,7.973c-0.518,0.611-1.368,0.622-1.899,0.024
	c-0.53-0.597-0.54-1.577-0.021-2.189l3.648-4.299c-5.33,0.706-10.569-0.415-10.816-0.471C9.591,31.681-1.855,16.74,0.249,1.308
	C0.354,0.544,0.924,0,1.574,0c0.07,0,0.139,0.006,0.21,0.018c0.732,0.133,1.232,0.925,1.118,1.77
	c-1.875,13.746,8.569,27.099,23.323,29.775c0.068,0.016,5.481,1.178,10.577,0.377l-5.629-3.343c-0.66-0.392-0.917-1.326-0.578-2.085
	c0.339-0.761,1.147-1.056,1.809-0.668l8.873,5.27C41.397,31.186,41.505,31.277,41.599,31.383z"/>
</svg>
