<?xml version="1.0" encoding="utf-8"?>
<!-- Generator: Adobe Illustrator 19.0.0, SVG Export Plug-In . SVG Version: 6.00 Build 0)  -->
<svg version="1.1" id="Слой_1" xmlns="http://www.w3.org/2000/svg" xmlns:xlink="http://www.w3.org/1999/xlink" x="0px" y="0px"
	 width="41.024px" height="34.999px" viewBox="0 0 41.024 34.999" enable-background="new 0 0 41.024 34.999" xml:space="preserve">
<path id="XMLID_2_" fill="#FF8330" d="M36.791,5.626c0.303-0.587,0.252-1.252-0.013-1.805c0.075-0.628-0.091-1.267-0.69-1.756
	c-0.558-0.456-1.116-0.911-1.674-1.367c-0.981-0.801-2.516-1.054-3.47,0c-4.333,4.785-8.863,9.362-13.56,13.772
	c-3.492-3.237-7.026-6.43-10.535-9.628C5.617,3.72,3.834,4.073,3.06,5.409c-1.129,0.556-2.043,1.281-2.8,2.518
	c-0.36,0.59-0.332,1.333,0,1.925c2.265,4.031,6.644,7.575,10.244,10.836c-0.482,0.428-0.96,0.86-1.451,1.279
	C4.202,26.101,0.93,28.723,7,32.961c0.082,0.057,0.165,0.044,0.249,0.078c0.116,0.053,0.228,0.091,0.357,0.111
	c0.04,0.002,0.078,0.009,0.117,0.005c0.125,0.01,0.247,0.042,0.374,0.017c3.263-0.635,6.298-3.173,9.052-5.967
	c2.682,2.623,5.538,5.13,8.679,6.617c0.748,0.354,1.639,0.148,2.215-0.348c0.965,0.073,1.845-0.523,2.287-1.378
	c0.065-0.04,0.108-0.063,0.178-0.107c1.403-0.869,1.532-2.602,0.493-3.797c-2.345-2.697-4.837-5.26-7.378-7.777
	C28.197,15.979,33.91,11.195,36.791,5.626z"/>
<path id="XMLID_4_" display="none" fill="#73C400" d="M39.27,2.574c-0.394-0.958-0.97-1.457-2.063-2.212
	c-0.956-0.659-2.418-0.357-3.204,0.409c-4.069,3.964-7.965,8.104-11.538,12.512c-1.737,2.144-4.256,4.712-5.788,7.429
	c-0.739-0.605-1.469-1.209-2.142-1.829C12.287,16.812,9.812,14.301,7,12.966c-2.324-1.104-4.079-0.1-5.554,1.808
	c-0.435,0.564-0.944,1.502-0.94,2.314c-0.592,0.624-0.756,1.635,0.01,2.566c4.96,6.021,11.102,10.717,17.612,14.995
	c0.868,0.57,2.513,0.453,3.192-0.407c6.984-8.851,13.628-18.592,19.322-28.287C41.598,4.327,40.616,2.969,39.27,2.574z"/>
</svg>
