<?xml version="1.0" encoding="utf-8"?>
<!-- Generator: Adobe Illustrator 19.0.0, SVG Export Plug-In . SVG Version: 6.00 Build 0)  -->
<svg version="1.1" id="Слой_1" xmlns="http://www.w3.org/2000/svg" xmlns:xlink="http://www.w3.org/1999/xlink" x="0px" y="0px"
	 width="21px" height="17.999px" viewBox="0 0 21 17.999" enable-background="new 0 0 21 17.999" xml:space="preserve">
<path fill="#C4FF70" d="M20.102,1.324c-0.202-0.493-0.497-0.75-1.056-1.138c-0.489-0.339-1.238-0.184-1.64,0.21
	c-2.083,2.039-4.077,4.168-5.906,6.435c-0.889,1.102-2.178,2.424-2.963,3.82c-0.378-0.311-0.752-0.621-1.096-0.94
	C6.29,8.646,5.023,7.355,3.583,6.668C2.394,6.1,1.495,6.617,0.74,7.598c-0.223,0.29-0.483,0.772-0.481,1.19
	c-0.303,0.321-0.387,0.841,0.005,1.319c2.539,3.097,5.683,5.512,9.015,7.712c0.444,0.293,1.287,0.233,1.634-0.209
	c3.575-4.552,6.976-9.562,9.891-14.548C21.294,2.225,20.791,1.527,20.102,1.324z"/>
</svg>
