<?xml version="1.0" encoding="utf-8"?>
<!-- Generator: Adobe Illustrator 19.0.0, SVG Export Plug-In . SVG Version: 6.00 Build 0)  -->
<svg version="1.1" id="Слой_1" xmlns="http://www.w3.org/2000/svg" xmlns:xlink="http://www.w3.org/1999/xlink" x="0px" y="0px"
	 width="87.986px" height="75.998px" viewBox="0 0 87.986 75.998" enable-background="new 0 0 87.986 75.998" xml:space="preserve">
<path fill="#ABFF34" d="M84.651,4.853c-0.748-1.806-1.845-2.747-3.922-4.17c-1.817-1.242-4.597-0.673-6.091,0.771
	c-7.735,7.475-25.141,25.281-31.933,33.595c-3.302,4.042-8.09,8.886-11.003,14.01c-1.405-1.14-2.792-2.279-4.072-3.449
	c-4.272-3.908-8.978-8.643-14.323-11.16c-4.418-2.081-7.755-0.188-10.558,3.409c-0.827,1.063-1.794,2.833-1.788,4.363
	c-1.126,1.176-1.437,3.084,0.02,4.838c9.429,11.354,21.104,20.209,33.479,28.276c1.649,1.074,4.778,0.854,6.067-0.766
	C53.804,57.879,76.435,29.51,87.26,11.23C89.078,8.158,87.21,5.599,84.651,4.853z"/>
</svg>
