<?xml version="1.0" encoding="utf-8"?>
<!-- Generator: Adobe Illustrator 19.0.0, SVG Export Plug-In . SVG Version: 6.00 Build 0)  -->
<svg version="1.1" id="Слой_1" xmlns="http://www.w3.org/2000/svg" xmlns:xlink="http://www.w3.org/1999/xlink" x="0px" y="0px"
	 width="52px" height="52px" viewBox="0 0 52 52" enable-background="new 0 0 52 52" xml:space="preserve">
<circle id="XMLID_53_" fill="#FFFFFF" cx="26.75" cy="24.417" r="20.25"/>
<path fill="#0CFFFF" d="M26,0C11.664,0,0,11.663,0,26c0,14.337,11.664,26,26,26c14.336,0,26-11.663,26-26C52,11.663,40.336,0,26,0z
	 M40.495,17.329l-16,18C24.101,35.772,23.552,36,22.999,36c-0.439,0-0.88-0.145-1.249-0.438l-10-8
	c-0.862-0.689-1.002-1.948-0.312-2.811c0.689-0.862,1.949-1.003,2.811-0.313l8.517,6.813L37.505,14.67
	c0.732-0.826,1.998-0.9,2.823-0.166C41.154,15.239,41.229,16.503,40.495,17.329z"/>
</svg>
