<?xml version="1.0" encoding="utf-8"?>
<!-- Generator: Adobe Illustrator 19.0.0, SVG Export Plug-In . SVG Version: 6.00 Build 0)  -->
<svg version="1.1" id="Слой_1" xmlns="http://www.w3.org/2000/svg" xmlns:xlink="http://www.w3.org/1999/xlink" x="0px" y="0px"
	 width="80px" height="80px" viewBox="0 0 80 80" enable-background="new 0 0 80 80" xml:space="preserve">
<circle id="XMLID_58_" fill="#73C400" cx="40.687" cy="40.313" r="34.438"/>
<path id="XMLID_5_" fill="#C6FF76" d="M32.435,38.303l-3.637,3.199l8.727,9.727l0.017-0.017l0.012,0.017l15.65-15.904l-2.793-3.672
	l-12.72,10.468L32.435,38.303z"/>
<path id="XMLID_2_" fill="#C6FF76" d="M39.999,0C17.908,0,0,17.909,0,39.999C0,62.089,17.908,80,39.999,80
	C62.09,80,80,62.09,80,39.999C80,17.909,62.09,0,39.999,0z M40,62.103c-20.583,0-22.049-34.825-22.049-34.825l22.049-9.383H40
	l22.049,9.383C62.049,27.278,60.583,62.103,40,62.103z"/>
</svg>
