<?xml version="1.0" encoding="utf-8"?>
<!-- Generator: Adobe Illustrator 19.0.0, SVG Export Plug-In . SVG Version: 6.00 Build 0)  -->
<svg version="1.1" id="Слой_1" xmlns="http://www.w3.org/2000/svg" xmlns:xlink="http://www.w3.org/1999/xlink" x="0px" y="0px"
	 width="112.25px" height="112.25px" viewBox="0 0 112.25 112.25" enable-background="new 0 0 112.25 112.25" xml:space="preserve">
<path id="XMLID_13_" fill-rule="evenodd" clip-rule="evenodd" fill="#00ADAB" d="M56.132,1c30.449,0,55.132,24.624,55.132,55
	c0,30.375-24.684,55-55.132,55S1,86.375,1,56C1,25.624,25.683,1,56.132,1L56.132,1z M78.741,40.584c1.326,0,2.529-0.539,3.4-1.408
	c0.872-0.869,1.412-2.069,1.412-3.392c0-1.322-0.54-2.523-1.411-3.392c-0.871-0.869-2.074-1.408-3.401-1.408
	c-1.326,0-2.528,0.538-3.4,1.408c-0.871,0.869-1.411,2.069-1.411,3.392c0,1.323,0.54,2.523,1.411,3.393
	C76.212,40.045,77.415,40.584,78.741,40.584L78.741,40.584z M36.861,40.887c1.326,0,2.529-0.539,3.4-1.408
	c0.872-0.87,1.411-2.07,1.411-3.392c0-1.324-0.54-2.524-1.411-3.392c-0.871-0.87-2.074-1.408-3.4-1.408
	c-1.326,0-2.528,0.538-3.4,1.408c-0.871,0.869-1.411,2.069-1.411,3.392c0,1.323,0.54,2.522,1.411,3.392
	C34.332,40.348,35.535,40.887,36.861,40.887L36.861,40.887z M42.667,41.879c1.487-1.484,2.409-3.534,2.409-5.793
	c0-2.26-0.921-4.309-2.408-5.793c-1.487-1.484-3.541-2.403-5.807-2.403c-2.265,0-4.319,0.919-5.806,2.403
	c-1.487,1.484-2.408,3.533-2.408,5.793c0,2.259,0.921,4.309,2.408,5.793c1.487,1.483,3.541,2.403,5.806,2.403
	C39.126,44.282,41.18,43.363,42.667,41.879L42.667,41.879z M43.963,85.41V68.482c0.347-0.265,0.668-0.562,0.959-0.884
	c0.394-0.436,0.731-0.914,1.004-1.424c0.276-0.515,0.487-1.06,0.627-1.624c0.141-0.565,0.214-1.144,0.214-1.724V52.024
	c0-0.959-0.194-1.879-0.546-2.725c-0.365-0.876-0.895-1.662-1.55-2.315c-0.655-0.653-1.442-1.183-2.321-1.546
	c-0.848-0.351-1.771-0.545-2.732-0.545h-5.515c-0.961,0-1.884,0.194-2.732,0.545c-0.878,0.363-1.666,0.893-2.321,1.546
	c-0.655,0.654-1.185,1.439-1.55,2.316c-0.352,0.846-0.546,1.766-0.546,2.725v10.803c0,0.581,0.074,1.159,0.214,1.724
	c0.14,0.565,0.352,1.109,0.627,1.625c0.273,0.51,0.61,0.988,1.004,1.424c0.292,0.322,0.613,0.618,0.96,0.883V85.41
	c0,0.937,0.762,1.697,1.702,1.697c0.94,0,1.702-0.76,1.702-1.697V68.073v-0.47h-0.006c0-0.545-0.264-1.08-0.752-1.407l-0.397-0.266
	c-0.261-0.175-0.494-0.377-0.695-0.599c-0.204-0.225-0.381-0.476-0.525-0.746c-0.138-0.259-0.247-0.541-0.322-0.843
	c-0.071-0.284-0.108-0.591-0.108-0.915V52.024c0-0.51,0.1-0.991,0.28-1.426c0.188-0.452,0.469-0.865,0.819-1.214
	c0.35-0.349,0.763-0.628,1.217-0.817c0.435-0.179,0.917-0.279,1.429-0.279h5.515c0.512,0,0.994,0.1,1.429,0.28
	c0.454,0.188,0.867,0.467,1.217,0.817c0.35,0.349,0.63,0.761,0.819,1.214c0.181,0.434,0.28,0.915,0.28,1.425v10.802
	c0,0.324-0.037,0.63-0.108,0.915c-0.075,0.3-0.183,0.583-0.322,0.841c-0.145,0.271-0.321,0.522-0.525,0.748
	c-0.201,0.222-0.434,0.423-0.695,0.599L41.43,66.12c-0.52,0.29-0.871,0.845-0.871,1.481v0.47V85.41c0,0.937,0.762,1.697,1.702,1.697
	S43.963,86.348,43.963,85.41L43.963,85.41z M77.218,85.411l0.003-16.537c-0.002,0.028-0.004,0.062-0.002,0.037
	c0.001-0.02,0.002-0.039,0.002-0.059h0.001h0.002l-0.002,0.022v-0.022l0-0.027c0-0.116-0.012-0.231-0.034-0.341
	c-0.003-0.018-0.006-0.034-0.01-0.051h0.002l-0.004-0.016c-0.007-0.031-0.015-0.062-0.024-0.093c-0.006-0.02-0.011-0.04-0.018-0.06
	h0.002c-0.061-0.195-0.154-0.38-0.274-0.551l0.001-0.001c-0.124-0.174-0.275-0.328-0.448-0.455c-0.174-0.128-0.366-0.227-0.57-0.291
	c-0.191-0.061-0.394-0.094-0.602-0.094h-4.17l4.217-8.416l0.004,0.002c0.023-0.046,0.054-0.123,0.091-0.225l0.003-0.008l0.004,0.001
	c0.021-0.058,0.041-0.125,0.059-0.202l0.003,0.001c0.007-0.03,0.014-0.066,0.02-0.109c0.024-0.113,0.036-0.23,0.036-0.351
	c0-0.05-0.002-0.101-0.007-0.15l0-5.055h0.004c0-0.44,0.086-0.856,0.242-1.23c0.163-0.39,0.406-0.747,0.71-1.05
	c0.024-0.023,0.047-0.048,0.068-0.072c0.284-0.265,0.616-0.482,0.982-0.633c0.374-0.154,0.79-0.24,1.232-0.24
	c0.443,0,0.859,0.086,1.234,0.24c0.392,0.163,0.748,0.404,1.051,0.705c0.303,0.302,0.545,0.657,0.707,1.049
	c0.155,0.373,0.241,0.789,0.241,1.231v5.204c0,0.05,0.005,0.122,0.015,0.211l0.001,0.006h-0.001c0.01,0.086,0.023,0.163,0.039,0.231
	l0.002,0.006l-0.002,0.001c0.001,0.005,0.006,0.019,0.012,0.042c0.01,0.037,0.021,0.073,0.033,0.109h-0.001
	c0.029,0.092,0.066,0.183,0.109,0.27c0.016,0.033,0.033,0.064,0.051,0.096l4.178,8.335h-4.127c-0.195,0-0.398,0.036-0.601,0.101
	c-0.215,0.069-0.408,0.165-0.571,0.285c-0.168,0.123-0.315,0.27-0.434,0.433c-0.118,0.162-0.212,0.349-0.278,0.555
	c-0.011,0.035-0.021,0.07-0.03,0.106l-0.004-0.001l-0.005,0.017c-0.02,0.079-0.034,0.157-0.043,0.235
	c-0.003,0.027-0.006,0.052-0.008,0.079h-0.003c-0.006,0.069-0.007,0.114-0.004,0.17H80.3h0.002c0.001,0.022,0.002,0.046,0.004,0.074
	l0.001,0.013h-0.001L80.3,68.852v16.559c0,0.938,0.762,1.698,1.702,1.698c0.94,0,1.702-0.76,1.702-1.698V70.268h4.169h1.282v-0.007
	c0.255,0.001,0.514-0.057,0.758-0.179c0.837-0.417,1.176-1.432,0.758-2.267l-0.574-1.146l-4.718-9.414v-4.893
	c0-0.89-0.18-1.745-0.507-2.531c-0.338-0.814-0.83-1.543-1.438-2.149c-0.608-0.606-1.339-1.097-2.154-1.435
	c-0.788-0.325-1.645-0.506-2.537-0.506c-0.891,0-1.748,0.181-2.535,0.506c-0.764,0.316-1.457,0.772-2.047,1.337
	c-0.037,0.031-0.072,0.063-0.107,0.097c-0.608,0.607-1.101,1.337-1.441,2.151c-0.327,0.785-0.508,1.64-0.508,2.529
	c0,0.061,0.003,0.122,0.01,0.182l0,4.692l-4.727,9.433l-0.504,1.005c-0.163,0.26-0.257,0.567-0.257,0.897
	c0,0.937,0.762,1.697,1.702,1.697h1.282h4.222l-0.003,15.143c0,0.935,0.759,1.691,1.695,1.691
	C76.46,87.102,77.218,86.346,77.218,85.411L77.218,85.411z M77.223,68.852h0.002C77.225,68.837,77.224,68.84,77.223,68.852
	L77.223,68.852z M80.353,68.408c-0.006,0.023-0.012,0.046-0.014,0.05h0.001c0.003-0.011,0.006-0.023,0.009-0.035L80.353,68.408
	L80.353,68.408z M56.922,52.197c1.063,0,2.027-0.432,2.725-1.129c0.699-0.697,1.131-1.659,1.131-2.719
	c0-2.122-1.729-3.847-3.857-3.847c-1.063,0-2.027,0.431-2.725,1.128c-0.698,0.697-1.131,1.659-1.131,2.719
	c0,1.063,0.431,2.026,1.128,2.722l0.003-0.003C54.895,51.765,55.859,52.197,56.922,52.197L56.922,52.197z M62.053,53.468
	c1.314-1.312,2.128-3.122,2.128-5.12c0-3.993-3.256-7.242-7.26-7.242c-2.002,0-3.817,0.813-5.131,2.123
	c-1.314,1.311-2.128,3.122-2.128,5.119c0,1.993,0.814,3.802,2.128,5.113l0.003,0.003l-0.003,0.004
	c1.314,1.311,3.129,2.123,5.131,2.123C58.924,55.592,60.739,54.78,62.053,53.468L62.053,53.468z M62.221,85.41v-9.938
	c0.347-0.266,0.668-0.562,0.959-0.884c0.394-0.436,0.731-0.914,1.004-1.424c0.275-0.515,0.487-1.061,0.627-1.624
	c0.141-0.565,0.214-1.143,0.214-1.724v-6.407c0-0.958-0.194-1.879-0.546-2.725c-0.365-0.876-0.895-1.662-1.55-2.315
	c-0.655-0.654-1.442-1.182-2.321-1.547c-0.848-0.35-1.771-0.544-2.732-0.544h-1.91c-0.961,0-1.884,0.194-2.732,0.544
	c-0.878,0.364-1.666,0.893-2.321,1.547c-0.655,0.653-1.185,1.439-1.55,2.315c-0.352,0.846-0.546,1.767-0.546,2.725v6.409
	c0,0.581,0.074,1.159,0.214,1.724c0.14,0.563,0.352,1.109,0.627,1.624c0.273,0.51,0.609,0.989,1.004,1.423
	c0.292,0.323,0.613,0.619,0.959,0.884v9.936c0,0.937,0.762,1.697,1.702,1.697c0.94,0,1.702-0.76,1.702-1.697V75.064v-0.471h-0.006
	c0-0.545-0.264-1.079-0.752-1.406l-0.397-0.267c-0.261-0.175-0.494-0.376-0.695-0.598c-0.204-0.225-0.381-0.476-0.525-0.747
	c-0.138-0.258-0.247-0.541-0.321-0.842c-0.071-0.285-0.108-0.591-0.108-0.915v-6.409c0-0.511,0.1-0.992,0.28-1.425
	c0.188-0.454,0.469-0.865,0.819-1.214c0.35-0.349,0.763-0.629,1.217-0.817c0.435-0.18,0.917-0.279,1.429-0.279h1.91
	c0.512,0,0.994,0.099,1.429,0.279c0.454,0.188,0.867,0.468,1.217,0.817c0.35,0.349,0.63,0.761,0.819,1.214
	c0.18,0.434,0.28,0.915,0.28,1.425v6.407c0,0.324-0.037,0.631-0.108,0.915c-0.075,0.301-0.183,0.583-0.321,0.842
	c-0.145,0.271-0.321,0.522-0.526,0.747c-0.201,0.223-0.434,0.424-0.695,0.599l-0.284,0.191c-0.52,0.29-0.871,0.845-0.871,1.481v0.47
	V85.41c0,0.937,0.762,1.697,1.702,1.697C61.459,87.108,62.221,86.348,62.221,85.41L62.221,85.41z M84.547,41.576
	c1.487-1.483,2.409-3.533,2.409-5.793c0-2.26-0.921-4.309-2.408-5.793c-1.487-1.484-3.541-2.402-5.807-2.402
	c-2.265,0-4.319,0.918-5.806,2.403c-1.487,1.483-2.408,3.532-2.408,5.792c0,2.26,0.921,4.309,2.408,5.793
	c1.487,1.483,3.54,2.403,5.806,2.403C81.006,43.98,83.06,43.06,84.547,41.576z"/>
<path id="XMLID_26_" display="none" fill-rule="evenodd" clip-rule="evenodd" fill="#00ADAB" d="M56.132,1
	c30.449,0,55.132,24.624,55.132,55c0,30.375-24.683,55-55.132,55S1,86.375,1,56C1,25.624,25.684,1,56.132,1L56.132,1z
	 M77.214,41.657c0.94,0,1.702,0.76,1.702,1.697c0,0.938-0.762,1.698-1.702,1.698H27.818V78.22c0,0.279,0.115,0.534,0.302,0.719
	c0.186,0.186,0.441,0.301,0.721,0.301h54.583c0.279,0,0.535-0.115,0.72-0.301c0.186-0.185,0.302-0.44,0.302-0.719V33.78
	c0-0.278-0.116-0.533-0.302-0.719c-0.186-0.185-0.441-0.3-0.72-0.3h-8.031v2.359c0,0.937-0.762,1.698-1.702,1.698
	c-0.94,0-1.702-0.76-1.702-1.698V32.76h-8.303v2.359c0,0.937-0.762,1.698-1.702,1.698c-0.94,0-1.702-0.76-1.702-1.698V32.76h-8.303
	v2.359c0,0.937-0.762,1.698-1.702,1.698c-0.94,0-1.702-0.76-1.702-1.698V32.76h-8.303v2.359c0,0.937-0.762,1.698-1.702,1.698
	s-1.702-0.76-1.702-1.698V32.76H28.84c-0.279,0-0.534,0.115-0.721,0.3c-0.186,0.186-0.302,0.441-0.302,0.719v7.877H77.214
	L77.214,41.657z M57.834,54.5v5.832h7.061V54.5H57.834L57.834,54.5z M57.834,63.727v5.832h7.061v-5.832H57.834L57.834,63.727z
	 M54.431,69.559v-5.832H47.37v5.832H54.431L54.431,69.559z M54.431,60.332V54.5H47.37v5.832H54.431L54.431,60.332z M43.967,69.559
	v-5.832H37.68v5.832H43.967L43.967,69.559z M43.967,60.332V54.5H37.68v5.832H43.967L43.967,60.332z M68.298,54.5v5.832h6.286V54.5
	H68.298L68.298,54.5z M68.298,63.727v5.832h6.286v-5.832H68.298L68.298,63.727z M36.986,51.105c-0.747,0-1.425,0.304-1.915,0.793
	c-0.49,0.489-0.795,1.165-0.795,1.91v8.222v8.222c0,0.745,0.304,1.421,0.795,1.91c0.49,0.489,1.168,0.793,1.915,0.793h38.292
	c0.747,0,1.425-0.304,1.915-0.793c0.49-0.488,0.795-1.165,0.795-1.91V62.03v-8.222c0-0.745-0.304-1.421-0.795-1.91
	c-0.49-0.488-1.168-0.793-1.915-0.793h-8.682H56.132H45.668H36.986L36.986,51.105z M48.577,27.007v2.358h-8.303v-2.358
	c0-0.938-0.762-1.698-1.702-1.698s-1.702,0.76-1.702,1.698v2.358H28.84c-1.219,0-2.325,0.497-3.127,1.295
	c-0.801,0.8-1.299,1.904-1.299,3.119v9.574V78.22c0,1.216,0.497,2.32,1.299,3.119c0.801,0.8,1.908,1.295,3.127,1.295h54.583
	c1.219,0,2.326-0.495,3.127-1.295c0.801-0.799,1.299-1.903,1.299-3.119V33.78c0-1.215-0.497-2.32-1.299-3.119
	c-0.801-0.799-1.908-1.295-3.127-1.295h-8.031v-2.358c0-0.938-0.762-1.698-1.702-1.698c-0.94,0-1.702,0.76-1.702,1.698v2.358h-8.303
	v-2.358c0-0.938-0.762-1.698-1.702-1.698c-0.94,0-1.702,0.76-1.702,1.698v2.358h-8.303v-2.358c0-0.938-0.762-1.698-1.702-1.698
	C49.339,25.309,48.577,26.069,48.577,27.007z"/>
<path id="XMLID_2_" display="none" fill-rule="evenodd" clip-rule="evenodd" fill="#00ADAB" d="M63.617,82.704
	c0,0.937-0.762,1.698-1.702,1.698s-1.702-0.76-1.702-1.698V76.36c0-0.937,0.762-1.697,1.702-1.697h11.741
	c0.94,0,1.702,0.76,1.702,1.697v6.345c0,0.937-0.762,1.698-1.702,1.698c-0.94,0-1.702-0.76-1.702-1.698v-4.647h-8.338V82.704
	L63.617,82.704z M51.711,57.335l0.081,0.034c1.332,0.551,2.798,0.856,4.341,0.856s3.008-0.305,4.341-0.856l0.08-0.034
	c-0.016-0.093-0.024-0.189-0.024-0.286v-6.12c-1.437,0.198-2.909,0.299-4.384,0.299c-1.46,0-2.94-0.1-4.41-0.302v6.124
	C51.735,57.146,51.727,57.242,51.711,57.335L51.711,57.335z M66.681,39.294l-0.006-0.003h0l0.017,0.008L66.681,39.294L66.681,39.294
	z M66.275,39.093l-0.002-0.001l0.038,0.019l0-0.001L66.275,39.093L66.275,39.093z M66.019,38.979
	c-0.026-0.012-0.012-0.006,0.002,0.002l0-0.001L66.019,38.979L66.019,38.979z M67.435,27.965c-0.013-0.033-0.024-0.067-0.035-0.104
	c-0.23-0.483-0.809-1.4-2.159-2.29c-1.694-1.117-4.495-2.11-9.098-2.111h-0.007l0,0h-0.004v0.007
	c-8.696,0-10.883,3.561-11.304,4.484v7.956c1.013-0.44,2.19-0.819,3.493-1.119c2.271-0.525,4.954-0.829,7.811-0.829
	c0.051,0,0.103,0.002,0.153,0.007c1.739,0.006,3.398,0.122,4.926,0.329c1.677,0.227,3.202,0.559,4.512,0.972
	c0.015,0.005,0.029,0.01,0.044,0.015c0.079,0.025-0.056-0.017,0.169,0.056c0.059,0.019,0.118,0.038,0.177,0.059
	c0.018,0.006,0.036,0.013,0.054,0.019l0-0.001l0.03,0.01l0.004,0.002l0.001-0.002c0.009,0.003,0.028,0.01,0.291,0.106
	c0.028,0.01,0.055,0.021,0.082,0.032l0-0.001c0.014,0.005-0.025-0.009,0.011,0.004l0.006,0.002l0.001-0.002l0.025,0.009
	c0.036,0.013,0.071,0.028,0.105,0.043c0.066,0.023,0.074,0.024,0.143,0.051c0.037,0.014,0.073,0.03,0.108,0.047l0.002-0.004
	l0.05,0.02c0.034,0.014,0.068,0.029,0.101,0.045c0.042,0.015-0.048-0.024,0.094,0.034c0.153,0.065,0.011,0.009,0.165,0.077
	l0.002-0.005l0.029,0.013l0.018,0.007V27.965L67.435,27.965z M70.616,26.735c0.026,0.062,0.049,0.125,0.067,0.189
	c0.01,0.027,0.019,0.053,0.027,0.078c0.082,0.2,0.128,0.418,0.128,0.646v10.899h-0.007c0,0.934-0.759,1.691-1.695,1.691
	l-0.475,0.001v-0.001c-0.368,0.001-0.739-0.118-1.05-0.364c-0.11-0.087-0.247-0.182-0.408-0.283
	c-0.135-0.085-0.284-0.171-0.445-0.257c-0.029-0.013-0.057-0.026-0.085-0.041c-0.045-0.023-0.021-0.013,0.001-0.002h0
	c-0.015-0.007-0.031-0.015-0.046-0.023c-0.203-0.104,0.094,0.043-0.095-0.052l-0.066-0.033l-0.004-0.001
	c0.005,0.003,0.237,0.121-0.034-0.01l0.002-0.005l-0.005-0.002c-0.034-0.013-0.068-0.028-0.102-0.044l-0.016-0.007l0-0.001
	l-0.087-0.04l-0.028-0.011l-0.076-0.034c-0.024-0.009-0.047-0.019-0.071-0.029l-0.029-0.013l0.001-0.003
	c-0.018-0.007-0.049-0.02-0.102-0.042l-0.08-0.034c-0.029-0.011-0.059-0.021-0.088-0.033l-0.05-0.02l0.001-0.004
	c-0.024-0.007-0.048-0.016-0.071-0.026l-0.114-0.045c-0.023-0.008-0.045-0.015-0.067-0.023l-0.025-0.009l0.001-0.002l-0.062-0.023
	l-0.026-0.009c-0.09-0.033-0.069-0.021-0.238-0.08l0.001-0.002l-0.032-0.01l-0.03-0.01l0-0.001l-0.015-0.005
	c-0.045-0.015-0.091-0.03-0.137-0.046c-0.123-0.04,0.049,0.017-0.147-0.044l0-0.002c-0.013-0.003-0.027-0.007-0.04-0.012
	c-1.158-0.365-2.49-0.656-3.94-0.853c-1.402-0.19-2.911-0.297-4.48-0.302c-0.049,0.004-0.098,0.006-0.147,0.006
	c-2.617,0-5.036,0.269-7.053,0.735c-1.928,0.445-3.451,1.051-4.37,1.749c-0.298,0.254-0.685,0.409-1.108,0.409h-0.474
	c-0.94,0-1.702-0.76-1.702-1.698V27.648h0.005c0-0.171,0.026-0.345,0.082-0.517c0.007-0.02,2.152-7.061,14.62-7.061v0.007h0.007
	h0.011l0,0c5.403,0.001,8.825,1.256,10.966,2.668c2.17,1.432,3.101,3.082,3.446,3.873C70.581,26.656,70.599,26.695,70.616,26.735
	L70.616,26.735z M33.951,86.383V75.642c0-3.199,1.3-6.094,3.401-8.19c1.974-1.97,4.657-3.234,7.634-3.378l7.93,6.372
	c0.942,0.757,2.081,1.137,3.217,1.137s2.275-0.379,3.217-1.137l7.93-6.372c2.977,0.145,5.66,1.408,7.634,3.378
	c2.101,2.095,3.401,4.991,3.401,8.19h0.007l-0.001,10.741c0,0.933,0.759,1.691,1.695,1.691c0.936,0,1.695-0.757,1.695-1.691
	l0.001-10.741h0.007c0-4.136-1.681-7.88-4.398-10.59c-2.717-2.711-6.47-4.387-10.616-4.387v0.004c-0.374,0-0.75,0.122-1.063,0.374
	l-8.418,6.764c-0.315,0.253-0.701,0.38-1.09,0.38s-0.775-0.127-1.09-0.38l-8.323-6.688c-0.304-0.282-0.711-0.454-1.158-0.454
	c-4.145,0-7.899,1.676-10.616,4.387c-2.717,2.71-4.398,6.454-4.398,10.59v10.741c0,0.937,0.762,1.697,1.702,1.697
	C33.189,88.08,33.951,87.32,33.951,86.383L33.951,86.383z M42.459,52.439c-0.352-0.864,0.064-1.85,0.931-2.202
	c0.866-0.351,1.854,0.064,2.207,0.929c0.281,0.685,0.638,1.351,1.064,1.989c0.412,0.617,0.895,1.202,1.438,1.744
	c0.077,0.077,0.155,0.153,0.234,0.227v-5.269c-0.809-0.349-1.655-0.757-2.454-1.18c-2.102-1.111-4.015-2.456-4.424-3.338
	c-0.393-0.85-0.021-1.856,0.831-2.248c0.852-0.392,1.861-0.021,2.253,0.829c0.088,0.191,1.383,0.947,2.922,1.76
	c1.687,0.892,3.525,1.695,4.461,1.85l0.017,0.004c1.381,0.2,2.795,0.297,4.207,0.297c1.415,0,2.81-0.098,4.153-0.292
	c0.015-0.003,0.03-0.006,0.045-0.009c0.935-0.155,2.774-0.958,4.461-1.85c1.539-0.814,2.834-1.57,2.922-1.76
	c0.393-0.85,1.402-1.221,2.253-0.829c0.852,0.392,1.224,1.399,0.831,2.248c-0.409,0.882-2.322,2.227-4.424,3.338
	c-0.799,0.423-1.644,0.83-2.454,1.18v5.269c0.079-0.075,0.157-0.151,0.235-0.228c0.544-0.542,1.026-1.127,1.439-1.746
	c0.426-0.637,0.783-1.304,1.064-1.99c0.352-0.864,1.34-1.279,2.207-0.928c0.866,0.351,1.283,1.337,0.931,2.201
	c-0.379,0.927-0.84,1.792-1.37,2.588c-0.554,0.83-1.179,1.592-1.864,2.276c-1.359,1.355-2.986,2.45-4.797,3.2
	c-1.745,0.722-3.652,1.121-5.644,1.121c-1.992,0-3.898-0.399-5.644-1.121c-1.811-0.75-3.438-1.844-4.797-3.2
	c-0.685-0.684-1.309-1.446-1.863-2.274C43.299,54.23,42.839,53.365,42.459,52.439L42.459,52.439z M56.132,1C25.684,1,1,25.624,1,56
	c0,30.375,24.684,55,55.132,55s55.132-24.625,55.132-55C111.264,25.624,86.581,1,56.132,1z"/>
</svg>
