<?xml version="1.0" encoding="utf-8"?>
<!-- Generator: Adobe Illustrator 19.0.0, SVG Export Plug-In . SVG Version: 6.00 Build 0)  -->
<svg version="1.1" id="Слой_1" xmlns="http://www.w3.org/2000/svg" xmlns:xlink="http://www.w3.org/1999/xlink" x="0px" y="0px"
	 width="21px" height="21.49px" viewBox="0 0 21 21.49" enable-background="new 0 0 21 21.49" xml:space="preserve">
<path id="XMLID_2_" fill="#73C400" d="M10.5,0.04C4.71,0.04,0,4.851,0,10.765S4.71,21.49,10.5,21.49c5.79,0,10.5-4.811,10.5-10.725
	S16.289,0.04,10.5,0.04z M16.354,7.188l-6.462,7.425c-0.159,0.183-0.381,0.276-0.604,0.276c-0.177,0-0.355-0.059-0.504-0.181
	l-4.038-3.3c-0.348-0.284-0.405-0.803-0.126-1.159c0.278-0.356,0.787-0.413,1.135-0.129l3.44,2.81l5.952-6.839
	c0.296-0.341,0.807-0.371,1.14-0.069C16.62,6.326,16.65,6.847,16.354,7.188z"/>
</svg>
