<?xml version="1.0" encoding="utf-8"?>
<!-- Generator: Adobe Illustrator 19.0.0, SVG Export Plug-In . SVG Version: 6.00 Build 0)  -->
<svg version="1.1" id="Слой_1" xmlns="http://www.w3.org/2000/svg" xmlns:xlink="http://www.w3.org/1999/xlink" x="0px" y="0px"
	 width="27px" height="27px" viewBox="0 0 27 27" enable-background="new 0 0 27 27" xml:space="preserve">
<circle id="XMLID_183_" fill="#FFFFFF" cx="13.861" cy="13.626" r="10.625"/>
<path fill="#009999" d="M13.5,0C6.056,0,0,6.055,0,13.5C0,20.944,6.056,27,13.5,27S27,20.944,27,13.5C27,6.055,20.944,0,13.5,0z
	 M21.026,8.997l-8.308,9.346c-0.205,0.23-0.49,0.348-0.777,0.348c-0.228,0-0.457-0.075-0.649-0.228L6.101,14.31
	c-0.448-0.357-0.52-1.011-0.162-1.459c0.358-0.448,1.012-0.52,1.459-0.162l4.422,3.537l7.653-8.609
	c0.38-0.429,1.037-0.467,1.466-0.086C21.368,7.912,21.407,8.569,21.026,8.997z"/>
</svg>
