<?xml version="1.0" encoding="utf-8"?>
<!-- Generator: Adobe Illustrator 19.0.0, SVG Export Plug-In . SVG Version: 6.00 Build 0)  -->
<svg version="1.1" id="Слой_1" xmlns="http://www.w3.org/2000/svg" xmlns:xlink="http://www.w3.org/1999/xlink" x="0px" y="0px"
	 width="27px" height="27px" viewBox="0 0 27 27" enable-background="new 0 0 27 27" xml:space="preserve">
<path fill="#73C400" d="M13.5,0C6.056,0,0,6.056,0,13.5C0,20.944,6.056,27,13.5,27S27,20.944,27,13.5C27,6.056,20.944,0,13.5,0z"/>
<path fill="#FFFFFF" d="M15.427,15.258l0.586-9.262H11l0.632,9.262H15.427z M13.53,20.982c1.359,0,2.483-1.083,2.483-2.343
	c0-1.282-1.124-2.365-2.483-2.365c-1.358,0-2.483,1.083-2.483,2.365C11.047,19.899,12.172,20.982,13.53,20.982z"/>
</svg>
