<?xml version="1.0" encoding="utf-8"?>
<!-- Generator: Adobe Illustrator 19.0.0, SVG Export Plug-In . SVG Version: 6.00 Build 0)  -->
<svg version="1.1" xmlns="http://www.w3.org/2000/svg" xmlns:xlink="http://www.w3.org/1999/xlink" x="0px" y="0px" width="30px"
	 height="18.083px" viewBox="0 0 30 18.083" enable-background="new 0 0 30 18.083" xml:space="preserve">
<g id="Слой_1">
	<g id="XMLID_3_">
		<g id="XMLID_97_">
			<path id="XMLID_102_" fill="#FFFFFF" d="M1.366,5.429c3.875,3.875,7.75,7.749,11.625,11.624c1.146,1.146,3.094,1.148,4.243,0
				c3.875-3.875,7.75-7.749,11.625-11.624c2.734-2.734-1.508-6.978-4.243-4.243c-3.875,3.875-7.75,7.749-11.625,11.624
				c1.414,0,2.828,0,4.243,0C13.359,8.936,9.484,5.061,5.609,1.187C2.875-1.547-1.369,2.694,1.366,5.429L1.366,5.429z"/>
		</g>
	</g>
</g>
<g id="Слой_1__x28_копия_x29_" display="none">
	<path id="XMLID_1_" display="inline" fill-rule="evenodd" clip-rule="evenodd" fill="#425058" d="M152.223,27.892v-2.277
		c0.346-0.652,0.641-1.271,1.076-2.167l6.425-14.279c0.225-0.577,0.413-1.092,0.58-1.593c0.451-1.308,1.833-1.972,3.228-1.949
		l0.069,0.002h0.003h0.005h0.002h0.003h0.004h0.001h0.003h0.005h0.001h0.004h0.005l0,0h0.004h0.004h0.001h0.005h0.003h0.002h0.005
		c0.159-0.001,0.322-0.005,0.481,0.004l-0.003,0.006c1.149,0.106,2.07,1.056,2.031,2.228c-0.083,1.699-0.125,3.853-0.041,5.262
		l0.499,7.957c0.166,2.403,0.25,3.647,0.458,4.683c0.166,1.16-0.666,2.321-1.83,2.28c-0.124,0-0.291,0-0.374,0
		c-1.247,0-2.287-0.954-2.204-2.197c0.042-0.704,0.084-1.658,0.084-3.025l-0.125-9.904c0-2.155-0.042-2.693-0.042-3.853
		c-0.413,0.93-0.825,1.883-1.238,2.841l-3.98,9.633c-0.79,2.113-1.205,3.357-1.497,4.392c-0.332,1.326-1.663,2.072-3.036,2.114l0,0
		C152.606,28.06,152.397,28,152.223,27.892L152.223,27.892z M152.223,9.315c0.161-0.649,0.324-1.256,0.492-1.849
		c0.168-0.526-0.074-1.024-0.492-1.311V9.315z M152.223,6.155v3.16c-0.424,1.706-0.84,3.714-1.341,6.595
		c-1.018,5.643-1.385,8.363-1.385,9.906c0,0.122,0,0.203,0,0.325c0.041,1.055-0.855,1.908-1.914,1.908
		c-1.182,0-2.119-0.975-2.037-2.111c0.04-0.974,0.407-3.492,0.57-4.384c-0.652,0.974-1.833,4.262-3.625,5.521
		c-1.874,1.299-3.993,1.421-4.563,1.421c-2.688,0-5.051-1.421-5.051-4.384c0-0.569,0.082-1.137,0.326-2.639l2.037-10.799
		c0.163-0.812,0.244-1.462,0.285-1.948c0.081-1.096,0.529-2.314,1.629-2.477c0.327-0.041,0.652-0.122,0.978-0.163
		c1.06-0.244,1.955,0.731,1.671,1.786c-0.489,1.908-0.652,2.639-1.059,4.547l-1.181,5.968c-0.448,2.071-0.611,3.004-0.611,3.898
		c0,1.543,0.733,2.882,2.973,2.882c0.855,0,3.463-0.203,5.214-3.126c1.019-1.746,1.915-5.278,2.526-8.485
		c0.448-2.436,0.651-3.978,0.693-4.993c0.04-1.178,0.733-2.274,1.873-2.477c0.326-0.041,0.652-0.122,0.937-0.163
		C151.552,5.856,151.93,5.954,152.223,6.155L152.223,6.155z M152.223,25.616c-0.118,0.223-0.242,0.45-0.38,0.693
		c-0.341,0.555-0.128,1.271,0.38,1.584V25.616L152.223,25.616z M122.11,38.57v-1.067c0.098,0.246,0.347,0.358,0.791,0.358
		c0.436,0,0.937-0.138,1.512-0.424l0.298-1.708h-0.787c-1.203,0-1.629,0.276-1.767,0.838c-0.018,0.078-0.033,0.151-0.046,0.218
		v-1.441c0.397-0.186,1.019-0.283,1.856-0.283h0.873c0.074-0.435,0.117-0.711,0.117-0.849c0-0.562-0.288-0.774-0.979-0.774
		c-0.394,0-0.735,0.01-1.022,0.032l-0.66,0.053c-0.117,0-0.17-0.042-0.17-0.127c0-0.01,0.011-0.085,0.032-0.244
		c0.032-0.159,0.053-0.254,0.085-0.286c0.032-0.032,0.085-0.064,0.16-0.074c0.085-0.021,0.298-0.053,0.628-0.085
		c0.34-0.042,0.692-0.063,1.043-0.063c1.213,0,1.82,0.498,1.82,1.506c0,0.181-0.021,0.371-0.053,0.573l-0.649,3.617
		c-0.011,0.117-0.128,0.213-0.245,0.213h-0.49c-0.117,0-0.181-0.064-0.181-0.181c0-0.01,0.011-0.095,0.043-0.265
		c-0.649,0.35-1.235,0.52-1.735,0.52C122.412,38.624,122.254,38.606,122.11,38.57L122.11,38.57z M122.11,26.384v-1.948
		c0.811-0.432,1.612-1.12,2.322-2.151c1.181-1.705,1.955-4.06,2.689-7.998l1.059-5.642c-0.774-0.244-1.914-0.65-3.462-0.65
		c-0.966,0-1.832,0.175-2.607,0.484V5.949c0.946-0.302,2.05-0.513,3.3-0.513c1.833,0,3.055,0.447,4.358,0.933l0.937-0.325
		c0.978-0.325,1.792,0.731,1.548,1.705c-0.326,1.34-0.774,3.41-1.467,7.186l-0.733,4.019c-0.692,3.898-0.896,6.049-0.896,7.349
		c0,0.974-0.937,1.664-1.915,1.705c-1.018,0.041-1.874-0.771-1.792-1.746c0.163-1.664,0.733-4.669,0.733-5.156
		C125.104,22.534,123.767,24.757,122.11,26.384L122.11,26.384z M148.969,3.398c0.301-0.054,0.518-0.359,0.503-0.668
		c-0.015-0.31-0.296-0.511-0.581-0.482c-0.848,0.128-1.987,0.182-3.865-0.207c-0.394-0.069-0.863-0.182-1.341-0.335
		c-0.779-0.265-1.676-0.167-2.253,0.456c-0.439,0.506-0.257,1.317,0.404,1.444C143.965,4.08,145.976,3.913,148.969,3.398z
		 M122.11,5.949v2.529c-0.294,0.118-0.575,0.256-0.844,0.41V6.258C121.532,6.148,121.813,6.044,122.11,5.949L122.11,5.949z
		 M122.11,24.436v1.948c-0.272,0.268-0.554,0.519-0.844,0.748v-2.337C121.547,24.704,121.829,24.585,122.11,24.436L122.11,24.436z
		 M122.11,35.344v1.441c-0.033,0.172-0.049,0.311-0.049,0.418c0,0.116,0.016,0.215,0.049,0.299v1.067
		c-0.396-0.099-0.687-0.33-0.844-0.676v-1.565l0.028-0.101c0.117-0.372,0.373-0.658,0.767-0.86L122.11,35.344L122.11,35.344z
		 M121.266,33.03v-0.313c0.088,0.008,0.132,0.048,0.132,0.116c0,0.053-0.011,0.085-0.043,0.117L121.266,33.03z M121.266,6.258v2.631
		c-4.036,2.319-5.226,8.539-5.226,11.285c0,2.801,1.018,4.872,3.666,4.872c0.497,0,1.025-0.075,1.56-0.25v2.337
		c-1.006,0.796-2.12,1.323-3.353,1.323c-2.973,0-5.947-2.151-5.947-6.779c0-1.949,0.692-9.499,6.762-13.966
		C119.232,7.334,120.091,6.743,121.266,6.258L121.266,6.258z M121.266,32.717v0.313l-2.785,2.518l1.213,1.856
		c0.405,0.616,0.607,0.933,0.618,0.955c0.01,0.01,0.01,0.032,0.01,0.053c0,0.095-0.053,0.138-0.149,0.138h-0.724
		c-0.096,0-0.149-0.021-0.181-0.074l-1.703-2.673l-0.287,1.623c-0.106,0.616-0.17,0.944-0.181,0.976
		c-0.011,0.032-0.032,0.074-0.075,0.106c-0.032,0.032-0.085,0.043-0.149,0.043h-0.511c-0.138,0-0.181-0.053-0.181-0.213l0.958-5.41
		c0.032-0.138,0.106-0.213,0.245-0.213h0.511c0.127,0,0.191,0.053,0.191,0.17c0,0.011-0.138,0.785-0.415,2.313l2.608-2.429
		c0.032-0.031,0.096-0.053,0.17-0.053h0.788C121.248,32.716,121.257,32.716,121.266,32.717L121.266,32.717z M121.266,36.328
		c-0.088,0.33-0.132,0.626-0.132,0.896c0,0.256,0.046,0.48,0.132,0.67V36.328L121.266,36.328z M111.419,38.283v-4.539l0.142-0.805
		c0.032-0.138,0.117-0.223,0.256-0.223h0.511c0.117,0,0.181,0.053,0.181,0.159c0,0.01-0.053,0.318-0.16,0.912l-0.468,2.63
		c-0.043,0.233-0.064,0.435-0.064,0.605c0,0.563,0.256,0.785,0.99,0.785c0.437,0,0.937-0.127,1.511-0.393l0.788-4.487
		c0.032-0.138,0.117-0.213,0.255-0.213h0.522c0.138,0,0.159,0.053,0.159,0.213l-0.947,5.41c-0.011,0.117-0.128,0.213-0.245,0.213
		h-0.5c-0.107,0-0.159-0.053-0.159-0.17c0-0.01,0.01-0.095,0.032-0.233c-0.607,0.318-1.192,0.477-1.767,0.477
		C112.03,38.624,111.679,38.506,111.419,38.283L111.419,38.283z M111.419,9.059c0.141-0.462,0.29-0.929,0.447-1.403
		c0.189-0.57-0.017-1.174-0.447-1.525V9.059z M111.419,6.131v2.928c-1.655,5.415-2.242,10.093-2.76,15.986
		c-0.028,0.321-0.035,0.611-0.041,0.853c-0.02,0.731-0.408,1.347-0.982,1.703V5.881c0.261-0.045,0.531-0.064,0.808-0.052
		c0.282,0.012,0.652,0,1.018,0c0.407,0,0.736,0.009,1.059,0C110.87,5.82,111.179,5.936,111.419,6.131L111.419,6.131z
		 M111.419,33.744v4.539c-0.333-0.285-0.518-0.739-0.518-1.335c0-0.201,0.022-0.414,0.064-0.637L111.419,33.744L111.419,33.744z
		 M107.636,35.972v-0.796h1.496l0.256-1.464c0.096-0.541,0.138-0.828,0.149-0.859c0.011-0.032,0.032-0.064,0.064-0.096
		c0.032-0.032,0.095-0.042,0.17-0.042h0.511c0.138,0,0.181,0.053,0.181,0.213l-0.958,5.41c-0.032,0.138-0.106,0.213-0.245,0.213
		h-0.511c-0.127,0-0.192-0.053-0.192-0.159c0-0.011,0.138-0.817,0.426-2.419H107.636z M107.636,5.881v21.72
		c-0.35,0.217-0.771,0.337-1.218,0.326c-0.351-0.008-0.708-0.009-1.059,0c-1.018,0.028-1.599-1.02-1.303-1.948
		c0.312-0.977,0.648-2.396,1.059-4.547l2.312-12.111l-5.327,8.142v-5.414l2.842-4.311C105.573,6.778,106.519,6.078,107.636,5.881
		L107.636,5.881z M107.636,35.177v0.796h-1.474l-0.266,1.517c-0.096,0.573-0.16,0.881-0.17,0.912
		c-0.01,0.032-0.032,0.074-0.064,0.106c-0.032,0.032-0.085,0.043-0.16,0.043h-0.511c-0.138,0-0.181-0.053-0.181-0.213l0.958-5.41
		c0.032-0.138,0.107-0.213,0.245-0.213h0.511c0.128,0,0.191,0.053,0.191,0.159c0,0.01-0.138,0.785-0.404,2.302H107.636
		L107.636,35.177z M102.098,38.463v-0.742c0.262-0.065,0.544-0.166,0.846-0.306l0.788-4.487c0.032-0.138,0.117-0.213,0.255-0.213
		h0.522c0.138,0,0.16,0.053,0.16,0.213l-0.947,5.41c-0.011,0.117-0.128,0.213-0.245,0.213h-0.5c-0.106,0-0.16-0.053-0.16-0.17
		c0-0.01,0.01-0.095,0.032-0.233C102.595,38.28,102.345,38.386,102.098,38.463z M102.098,12.049v5.414l-4.855,7.42
		c-0.485,0.742-1.181,1.259-2.078,1.259c-0.635,0-1.128-0.494-1.336-1.095V9.522l2.91,10.585l0.056-0.015L102.098,12.049
		L102.098,12.049z M102.098,37.721v0.742c-0.344,0.108-0.682,0.161-1.017,0.161c-0.968,0-1.554-0.615-1.554-1.676
		c0-0.201,0.022-0.414,0.064-0.637l0.596-3.373c0.032-0.138,0.117-0.223,0.255-0.223h0.511c0.117,0,0.181,0.053,0.181,0.159
		c0,0.01-0.053,0.318-0.16,0.912l-0.468,2.63c-0.043,0.233-0.064,0.435-0.064,0.605c0,0.563,0.255,0.785,0.99,0.785
		C101.64,37.808,101.862,37.779,102.098,37.721L102.098,37.721z M93.83,38.55V37.69l1.97-4.242c0.245-0.541,0.692-0.806,1.192-0.806
		c0.586,0,0.915,0.265,0.968,0.795l0.543,4.869c0,0.159-0.075,0.244-0.213,0.244h-0.586c-0.096,0-0.149-0.053-0.159-0.159
		l-0.447-4.721c-0.011-0.127-0.064-0.191-0.171-0.191c-0.106,0-0.191,0.064-0.245,0.191l-2.129,4.721
		c-0.053,0.106-0.128,0.159-0.213,0.159H93.83L93.83,38.55z M93.83,33.189l0.265-0.24c0.032-0.032,0.043-0.064,0.043-0.117
		c0-0.074-0.053-0.117-0.16-0.117H93.83V33.189L93.83,33.189z M93.83-11.54v-2.693c0.903-0.159,2.022-0.032,3.405,0.467
		C95.821-13.554,94.706-12.717,93.83-11.54z M93.83-14.233v2.693c-1.108,1.489-1.834,3.523-2.3,5.529v-6.72
		C92.064-13.511,92.808-14.054,93.83-14.233L93.83-14.233z M93.83,9.522v15.524c-0.019-0.054-0.035-0.108-0.049-0.163l-2.251-8.89
		V5.914c0.922,0.261,1.604,1.076,1.888,2.108L93.83,9.522L93.83,9.522z M93.83,32.716v0.473l-2.3,2.08v-1.112l1.49-1.388
		c0.032-0.031,0.096-0.053,0.171-0.053H93.83L93.83,32.716z M93.83,37.69v0.861h-0.158c-0.096,0-0.149-0.053-0.149-0.159
		c0-0.032,0.011-0.053,0.021-0.085L93.83,37.69L93.83,37.69z M91.529,37.724v-1.703l0.905,1.384
		c0.404,0.616,0.607,0.933,0.617,0.955c0.011,0.01,0.011,0.032,0.011,0.053c0,0.095-0.053,0.138-0.149,0.138h-0.724
		c-0.096,0-0.149-0.021-0.181-0.074L91.529,37.724z M84.889,33.231c-3.407,8.609-8.006,15.951-13.518,21.688v-4
		c5.776-4.665,10.495-10.591,13.51-17.688H84.889L84.889,33.231z M91.529-12.731v6.72c-0.444,1.911-0.651,3.798-0.727,5.165
		c-0.302-2.438-0.948-7-0.059-10.13C90.931-11.635,91.187-12.232,91.529-12.731L91.529-12.731z M91.529,5.914
		c-0.238-0.067-0.492-0.097-0.76-0.085c-0.251,0.012-0.504,0.027-0.781,0.035c0.302-5.11,0.003-9.73-1.016-14.948
		c-0.259-1.33-0.583-2.433-0.812-3.749c-0.059-0.341-0.211-0.603-0.452-0.783c-0.243-0.183-0.526-0.278-0.847-0.29
		c-0.319-0.011-0.629,0.077-0.922,0.254c-0.19,0.116-0.382,0.227-0.582,0.333c-0.195,0.103-0.406,0.204-0.619,0.312
		c-0.262,0.132-0.422,0.335-0.502,0.587c-0.081,0.255-0.095,0.53-0.045,0.832c0.05,0.301,0.14,0.593,0.267,0.878
		c0.471,1.055,0.65,2.123,0.847,3.251c0.679,3.883,0.971,8.023,0.97,11.96c-0.004,17.01-5.287,30.601-14.904,39.79v4.313
		c9.645-8.603,15.733-21.197,17.988-36.544c0.229-1.754,1.094-0.53,1.368,0.767l0.802,3.166V5.914L91.529,5.914z M91.529,34.157
		v1.112l-0.308,0.279l0.308,0.472v1.703l-1.224-1.921l-0.288,1.623c-0.106,0.616-0.17,0.944-0.181,0.976
		c-0.01,0.032-0.032,0.074-0.074,0.106c-0.032,0.032-0.085,0.043-0.149,0.043h-0.511c-0.139,0-0.181-0.053-0.181-0.213l0.958-5.41
		c0.032-0.138,0.107-0.213,0.245-0.213h0.511c0.128,0,0.191,0.053,0.191,0.17c0,0.011-0.138,0.785-0.415,2.313L91.529,34.157
		L91.529,34.157z M71.371,36.478l0.255-0.291h0.213c0.106,0,0.224-0.002,0.351-0.007c0.128-0.003,0.266-0.009,0.416-0.014
		c-0.128,0.732-0.224,1.284-0.288,1.653c-0.064,0.371-0.096,0.558-0.096,0.563c0,0.058,0.015,0.101,0.046,0.13
		c0.032,0.026,0.076,0.04,0.135,0.04h0.522c0.069,0,0.123-0.017,0.161-0.054c0.041-0.036,0.067-0.089,0.083-0.158l0.948-5.41
		c0-0.042-0.005-0.078-0.014-0.104c-0.011-0.028-0.023-0.049-0.039-0.065c-0.023-0.017-0.098-0.035-0.22-0.053
		c-0.124-0.019-0.305-0.034-0.543-0.046c-0.238-0.01-0.541-0.017-0.908-0.017c-0.377,0-0.717,0.029-1.022,0.086v0.771
		c0.257-0.063,0.576-0.095,0.958-0.093c0.186,0,0.342,0.002,0.47,0.007c0.128,0.003,0.227,0.009,0.296,0.014l-0.351,1.984
		l-0.777,0.021c-0.224,0.002-0.423-0.009-0.596-0.031V36.478L71.371,36.478z M71.371,28.109v-3.849
		c0.264,0.27,0.569,0.52,0.92,0.745c1.059,0.691,2.241,0.935,3.463,0.935c1.059,0,1.914-0.163,2.729-0.447
		c0.611-0.162,0.978,0.569,0.774,1.178c-0.367,0.974-1.303,1.664-2.322,1.785c-0.652,0.081-1.344,0.122-2.036,0.122
		C73.607,28.577,72.427,28.416,71.371,28.109L71.371,28.109z M71.371,12.714V7.696c2.038-1.392,4.605-2.26,7.723-2.26
		c1.059,0,1.915,0.121,2.649,0.284l0,0c0.896,0.203,1.1,1.299,0.773,2.152c-0.325,0.811-1.344,0.933-2.159,0.609
		c-0.489-0.163-1.1-0.284-1.874-0.284C75.291,8.197,72.854,10.057,71.371,12.714z M71.371,54.919
		c-1.672,1.74-3.428,3.331-5.261,4.766v-5.036c1.832-1.135,3.59-2.381,5.261-3.73V54.919L71.371,54.919z M71.371,7.696v5.017
		c-1.072,1.92-1.646,4.256-1.646,6.607c0,1.632,0.286,3.548,1.646,4.938v3.849c-2.498-0.727-4.304-2.274-5.261-4.458v-8.783
		C67.031,12.101,68.77,9.472,71.371,7.696L71.371,7.696z M71.371,32.73v0.771c-0.041,0.01-0.08,0.021-0.117,0.033
		c-0.273,0.087-0.473,0.221-0.599,0.405c-0.128,0.186-0.19,0.426-0.188,0.721c-0.002,0.278,0.119,0.477,0.364,0.598
		c0.137,0.068,0.318,0.117,0.541,0.145v1.076l-1.001,1.141c-0.245,0.271-0.431,0.477-0.561,0.621
		c-0.127,0.143-0.2,0.222-0.216,0.239c-0.021,0.031-0.054,0.053-0.096,0.063c-0.016,0.005-0.037,0.009-0.06,0.009
		c-0.025,0.001-0.051,0.001-0.078,0.001h-0.553c-0.059,0-0.103-0.011-0.135-0.033c-0.031-0.021-0.046-0.057-0.046-0.105
		c0-0.021,0.002-0.039,0.007-0.055c0.003-0.014,0.009-0.025,0.014-0.03l2.033-2.249c-0.378-0.111-0.662-0.281-0.854-0.51
		c-0.19-0.228-0.286-0.518-0.286-0.868c0.002-0.452,0.11-0.832,0.328-1.137c0.218-0.306,0.537-0.536,0.961-0.689
		C70.996,32.816,71.176,32.768,71.371,32.73L71.371,32.73z M71.371,44.29c-1.631,1.558-3.386,2.989-5.261,4.289v4.08
		c1.856-1.232,3.612-2.584,5.261-4.056V44.29L71.371,44.29z M66.11,38.46v-0.678c0.031-0.007,0.062-0.015,0.093-0.024
		c0.25-0.071,0.52-0.177,0.807-0.32l0.298-1.708H66.52c-0.148,0-0.284,0.004-0.41,0.012v-0.67c0.143-0.007,0.294-0.01,0.452-0.01
		h0.873c0.037-0.217,0.067-0.396,0.087-0.535c0.02-0.14,0.031-0.245,0.031-0.313c0.003-0.278-0.075-0.477-0.231-0.598
		c-0.156-0.122-0.404-0.181-0.748-0.176c-0.164,0-0.318,0.002-0.463,0.005v-0.783l0.034-0.002c0.174-0.01,0.349-0.016,0.525-0.016
		c0.607,0,1.062,0.125,1.366,0.375c0.304,0.251,0.454,0.628,0.454,1.131c0,0.091-0.005,0.182-0.014,0.278
		c-0.01,0.096-0.023,0.195-0.039,0.296l-0.649,3.617c-0.007,0.06-0.035,0.11-0.082,0.15c-0.048,0.039-0.103,0.06-0.163,0.062h-0.49
		c-0.059,0-0.103-0.016-0.135-0.045c-0.03-0.033-0.046-0.076-0.046-0.135c0-0.005,0.004-0.03,0.009-0.073
		c0.007-0.044,0.017-0.107,0.034-0.192C66.633,38.258,66.365,38.377,66.11,38.46z M66.11,59.685
		c-0.728,0.57-1.467,1.115-2.218,1.634V55.95c0.75-0.417,1.49-0.849,2.218-1.3V59.685L66.11,59.685z M66.11,14.868v8.783
		c-0.515-1.174-0.784-2.532-0.784-4.045C65.326,18.07,65.585,16.446,66.11,14.868L66.11,14.868z M66.11,32.662v0.783
		c-0.204,0.005-0.39,0.014-0.558,0.026l-0.66,0.053c-0.058,0-0.101-0.011-0.129-0.032c-0.027-0.021-0.041-0.053-0.041-0.095
		c0-0.006,0.001-0.027,0.007-0.067c0.006-0.039,0.014-0.098,0.025-0.176c0.016-0.08,0.03-0.144,0.042-0.191
		c0.013-0.048,0.026-0.08,0.043-0.095c0.016-0.016,0.038-0.032,0.064-0.046c0.027-0.012,0.059-0.023,0.096-0.028
		c0.042-0.011,0.117-0.023,0.222-0.039c0.106-0.014,0.241-0.03,0.406-0.047C65.785,32.689,65.946,32.673,66.11,32.662L66.11,32.662z
		 M66.11,35.073v0.67c-0.13,0.009-0.248,0.022-0.354,0.039c-0.209,0.035-0.382,0.087-0.518,0.157
		c-0.136,0.069-0.241,0.156-0.319,0.261c-0.077,0.104-0.131,0.227-0.165,0.368c-0.064,0.276-0.096,0.488-0.096,0.636
		c-0.002,0.227,0.064,0.394,0.197,0.501c0.133,0.106,0.348,0.159,0.644,0.157c0.191,0,0.395-0.027,0.612-0.081v0.678
		c-0.04,0.013-0.079,0.026-0.119,0.038c-0.291,0.086-0.562,0.129-0.812,0.129c-0.3-0.002-0.558-0.057-0.774-0.165
		c-0.215-0.109-0.381-0.268-0.497-0.477l-0.017-0.031v-1.729c0.118-0.369,0.373-0.654,0.765-0.855
		c0.197-0.101,0.454-0.177,0.774-0.23C65.633,35.108,65.86,35.086,66.11,35.073L66.11,35.073z M66.11,48.58v4.08
		c-0.724,0.48-1.463,0.943-2.218,1.386v-4.02C64.65,49.564,65.388,49.081,66.11,48.58L66.11,48.58z M63.892,33.059v-0.34h0.001
		c0.053,0,0.094,0.01,0.121,0.03c0.027,0.021,0.039,0.049,0.039,0.087c0,0.026-0.004,0.048-0.009,0.066
		c-0.007,0.019-0.018,0.035-0.034,0.051L63.892,33.059z M63.892,61.319c-0.802,0.555-1.618,1.08-2.447,1.576v-5.666
		c0.827-0.407,1.643-0.833,2.447-1.279V61.319L63.892,61.319z M63.892,32.719v0.34l-2.447,2.213V34.16l1.49-1.388
		c0.016-0.016,0.039-0.028,0.069-0.039c0.03-0.009,0.064-0.014,0.101-0.014H63.892L63.892,32.719z M63.892,36.226v1.729
		c-0.106-0.201-0.159-0.445-0.161-0.728c0-0.148,0.014-0.306,0.041-0.469c0.027-0.167,0.066-0.342,0.119-0.527L63.892,36.226
		L63.892,36.226z M63.892,50.026v4.02c-0.798,0.468-1.614,0.915-2.447,1.34v-3.974C62.28,50.971,63.097,50.51,63.892,50.026
		L63.892,50.026z M61.446,37.726v-1.703l0.905,1.384c0.202,0.308,0.354,0.541,0.456,0.7c0.103,0.159,0.156,0.243,0.162,0.254
		c0.005,0.005,0.008,0.012,0.008,0.023c0.002,0.009,0.002,0.019,0.002,0.03c0,0.048-0.012,0.084-0.039,0.105
		c-0.025,0.023-0.062,0.033-0.11,0.033h-0.724c-0.048,0-0.085-0.005-0.113-0.017c-0.031-0.011-0.052-0.03-0.068-0.056L61.446,37.726
		L61.446,37.726z M61.446,21.377V7.459l0.007,0.008c1.914,1.868,1.996,4.384,1.996,5.602C63.449,15.642,62.803,18.679,61.446,21.377
		z M61.446,62.895c-0.828,0.496-1.669,0.962-2.522,1.397v-5.898c0.851-0.368,1.692-0.757,2.522-1.166V62.895L61.446,62.895z
		 M61.446,7.459v13.919c-0.666,1.324-1.504,2.566-2.522,3.632v-8.62c0.288-1.599,0.369-2.922,0.369-3.483
		c0-0.598-0.016-1.494-0.369-2.381v-4.61C59.925,6.259,60.776,6.774,61.446,7.459L61.446,7.459z M61.446,34.16v1.112l-0.309,0.279
		l0.309,0.472v1.703l-1.224-1.921l-0.288,1.622c-0.053,0.308-0.096,0.543-0.126,0.707c-0.032,0.163-0.05,0.253-0.055,0.269
		c-0.005,0.016-0.014,0.034-0.025,0.053c-0.012,0.02-0.028,0.037-0.049,0.053c-0.016,0.016-0.037,0.027-0.062,0.034
		c-0.026,0.006-0.055,0.009-0.087,0.009h-0.511c-0.038,0.001-0.07-0.004-0.095-0.013v-0.685l0.872-4.923
		c0.016-0.069,0.042-0.122,0.083-0.157c0.039-0.037,0.092-0.055,0.161-0.055h0.511c0.064,0,0.112,0.014,0.144,0.041
		c0.032,0.028,0.048,0.071,0.048,0.129c0,0.005-0.034,0.202-0.103,0.587c-0.069,0.387-0.174,0.961-0.312,1.725L61.446,34.16
		L61.446,34.16z M61.446,51.411v3.974c-0.823,0.42-1.665,0.817-2.522,1.195v-3.927C59.783,52.262,60.623,51.846,61.446,51.411
		L61.446,51.411z M58.924,33.412l0.001-0.006c0.012-0.05,0.027-0.115,0.042-0.2c0.016-0.091,0.026-0.159,0.034-0.211
		c0.006-0.049,0.009-0.081,0.009-0.096c0-0.027-0.005-0.048-0.016-0.066c-0.011-0.016-0.026-0.03-0.048-0.041
		c-0.005-0.003-0.012-0.006-0.023-0.01V33.412z M58.924,64.293c-0.698,0.357-1.403,0.697-2.117,1.013v-6.04
		c0.712-0.275,1.417-0.568,2.117-0.871V64.293L58.924,64.293z M58.924,5.915v4.61c-0.199-0.5-0.505-0.997-0.975-1.436
		c-0.248-0.227-0.622-0.505-1.142-0.725V5.464C57.57,5.543,58.279,5.694,58.924,5.915L58.924,5.915z M58.924,16.389v8.62
		c-0.635,0.666-1.34,1.263-2.117,1.769V22.45C57.946,20.583,58.582,18.291,58.924,16.389L58.924,16.389z M58.924,32.783v0.629
		c-0.012,0.046-0.026,0.076-0.041,0.091c-0.016,0.01-0.036,0.018-0.057,0.023c-0.023,0.005-0.049,0.009-0.082,0.009h-0.064
		c-0.175-0.026-0.372-0.046-0.589-0.056c-0.218-0.013-0.454-0.018-0.709-0.018c-0.203-0.002-0.395,0.034-0.575,0.109v-0.846
		c0.223-0.053,0.461-0.08,0.713-0.08c0.165,0,0.326,0.005,0.484,0.016c0.158,0.011,0.309,0.027,0.452,0.048
		c0.143,0.016,0.257,0.032,0.34,0.047C58.857,32.765,58.899,32.775,58.924,32.783L58.924,32.783z M58.924,37.854v0.685
		c-0.02-0.007-0.035-0.018-0.047-0.032c-0.027-0.033-0.041-0.089-0.039-0.167L58.924,37.854L58.924,37.854z M58.924,52.653v3.927
		c-0.695,0.306-1.4,0.598-2.117,0.875v-3.896C57.525,53.271,58.23,52.97,58.924,52.653L58.924,52.653z M56.807,38.621v-0.811
		c0.22-0.003,0.406-0.009,0.559-0.019c0.197-0.013,0.348-0.023,0.451-0.035c0.101-0.012,0.167-0.017,0.194-0.02
		c0.043,0,0.074,0.009,0.096,0.025c0.021,0.017,0.032,0.044,0.032,0.081c0,0.005-0.004,0.034-0.009,0.085
		c-0.007,0.051-0.018,0.122-0.034,0.212c-0.016,0.091-0.032,0.161-0.051,0.214c-0.018,0.053-0.039,0.088-0.066,0.104
		c-0.021,0.016-0.074,0.031-0.159,0.05c-0.085,0.016-0.202,0.035-0.352,0.056c-0.143,0.021-0.299,0.037-0.468,0.048
		C56.936,38.615,56.872,38.618,56.807,38.621z M56.807,65.306c-1.656,0.731-3.355,1.347-5.09,1.85v-6.188
		c1.723-0.492,3.424-1.058,5.09-1.702V65.306L56.807,65.306z M56.807,5.464v2.902c-0.506-0.213-1.151-0.371-1.954-0.371
		c-1.208,0-2.246,0.326-3.137,0.879v-2.9c1.139-0.372,2.388-0.577,3.748-0.577C55.929,5.396,56.377,5.418,56.807,5.464L56.807,5.464
		z M56.807,22.45v4.328c-1.444,0.94-3.137,1.561-5.09,1.718V25.95C54.049,25.737,55.676,24.303,56.807,22.45L56.807,22.45z
		 M56.807,32.724v0.846c-0.048,0.02-0.095,0.042-0.142,0.068c-0.222,0.12-0.413,0.316-0.578,0.59
		c-0.163,0.272-0.289,0.635-0.376,1.089c-0.059,0.34-0.103,0.623-0.135,0.85c-0.03,0.229-0.046,0.401-0.046,0.518
		c0,0.377,0.09,0.658,0.27,0.845c0.181,0.186,0.449,0.279,0.806,0.279c0.07,0,0.138,0,0.202,0v0.811
		c-0.11,0.004-0.223,0.006-0.34,0.006c-0.389-0.002-0.72-0.085-0.999-0.246c-0.277-0.162-0.49-0.393-0.639-0.689
		c-0.149-0.297-0.223-0.651-0.225-1.059c0-0.154,0.021-0.368,0.062-0.642c0.043-0.274,0.103-0.605,0.183-0.992
		c0.08-0.392,0.199-0.735,0.356-1.027c0.158-0.293,0.351-0.538,0.58-0.733c0.229-0.196,0.489-0.345,0.778-0.444
		C56.643,32.768,56.724,32.744,56.807,32.724L56.807,32.724z M56.807,53.558v3.896c-1.639,0.634-3.337,1.191-5.09,1.671v-3.828
		C53.473,54.793,55.171,54.214,56.807,53.558L56.807,53.558z M51.717,38.62v-0.78c0.109-0.003,0.215-0.007,0.319-0.013
		c0.183-0.01,0.362-0.027,0.538-0.048l0.819-0.095c0.037,0,0.065,0.01,0.087,0.03c0.02,0.021,0.03,0.049,0.03,0.087
		c0,0.01-0.003,0.039-0.009,0.087c-0.007,0.046-0.018,0.11-0.034,0.189c-0.016,0.079-0.028,0.141-0.04,0.185
		c-0.012,0.044-0.023,0.074-0.034,0.09c-0.022,0.032-0.054,0.053-0.096,0.064c-0.016,0.005-0.058,0.016-0.128,0.03
		c-0.069,0.016-0.165,0.034-0.287,0.055c-0.245,0.042-0.49,0.074-0.735,0.096c-0.122,0.01-0.252,0.018-0.39,0.023L51.717,38.62
		L51.717,38.62z M51.717,35.933v-0.711h1.474c0.027-0.122,0.046-0.237,0.057-0.343c0.013-0.106,0.018-0.203,0.018-0.293
		c0-0.376-0.096-0.658-0.287-0.845c-0.191-0.188-0.479-0.279-0.862-0.279c-0.139,0-0.272,0.016-0.399,0.048v-0.822
		c0.171-0.029,0.35-0.042,0.538-0.042c0.41,0.002,0.759,0.083,1.048,0.246c0.291,0.161,0.513,0.389,0.667,0.682
		c0.153,0.296,0.23,0.644,0.232,1.045c0,0.1-0.007,0.214-0.023,0.34c-0.014,0.125-0.035,0.26-0.062,0.403
		c-0.027,0.143-0.048,0.257-0.066,0.341c-0.02,0.085-0.036,0.141-0.052,0.168c-0.016,0.021-0.037,0.037-0.066,0.048
		c-0.03,0.011-0.067,0.016-0.115,0.016H51.717z M51.717,67.156c-1.692,0.49-3.42,0.865-5.181,1.128v-6.077
		c1.745-0.336,3.474-0.752,5.181-1.239V67.156L51.717,67.156z M51.717,5.973v2.9c-3.915,2.427-4.97,9.215-4.97,11.828
		c0,3.856,2.036,5.278,4.358,5.278c0.209,0,0.412-0.01,0.611-0.029v2.546c-0.319,0.026-0.645,0.04-0.978,0.04
		c-1.476,0-2.931-0.296-4.203-0.955V9.47C47.896,7.905,49.62,6.657,51.717,5.973L51.717,5.973z M51.717,32.687v0.822
		c-0.137,0.034-0.266,0.087-0.389,0.156c-0.237,0.136-0.438,0.334-0.603,0.595c-0.163,0.261-0.282,0.584-0.355,0.962h1.346v0.711
		h-1.485c-0.026,0.164-0.048,0.311-0.062,0.438c-0.016,0.129-0.023,0.241-0.023,0.336c0,0.377,0.11,0.659,0.328,0.85
		c0.22,0.189,0.55,0.285,0.992,0.285c0.084,0,0.168-0.001,0.25-0.003v0.78c-0.124,0.004-0.254,0.008-0.389,0.008
		c-0.424-0.002-0.793-0.078-1.107-0.228c-0.312-0.152-0.555-0.373-0.727-0.665c-0.172-0.292-0.261-0.649-0.263-1.07
		c0-0.174,0.021-0.402,0.066-0.682c0.043-0.281,0.11-0.612,0.201-0.994c0.09-0.382,0.218-0.718,0.383-1.009
		c0.165-0.29,0.367-0.534,0.607-0.73c0.24-0.201,0.506-0.354,0.8-0.454C51.424,32.748,51.568,32.712,51.717,32.687L51.717,32.687z
		 M51.717,55.297v3.828c-1.675,0.458-3.402,0.845-5.181,1.159v-3.755C48.316,56.189,50.043,55.778,51.717,55.297L51.717,55.297z
		 M46.536,36.278v-0.736c0.105-0.005,0.214-0.013,0.325-0.021c0.232-0.021,0.473-0.05,0.723-0.087l0.287-1.612
		c0.054-0.302,0.094-0.534,0.121-0.693c0.028-0.159,0.045-0.246,0.05-0.261c0.005-0.016,0.016-0.032,0.029-0.048
		c0.014-0.016,0.03-0.031,0.046-0.048c0.016-0.016,0.037-0.028,0.064-0.039c0.027-0.009,0.059-0.014,0.096-0.014h0.51
		c0.068-0.002,0.116,0.014,0.142,0.046c0.027,0.031,0.041,0.088,0.039,0.166l-0.958,5.41c-0.011,0.069-0.037,0.122-0.078,0.158
		c-0.043,0.037-0.098,0.054-0.167,0.054h-0.511c-0.058,0-0.102-0.014-0.135-0.04c-0.03-0.028-0.046-0.071-0.046-0.13
		c0-0.005,0.032-0.192,0.096-0.563c0.064-0.37,0.16-0.921,0.287-1.653c-0.287,0.048-0.562,0.083-0.823,0.105L46.536,36.278z
		 M46.536,68.284c-0.974,0.146-1.958,0.256-2.951,0.33v-5.915c0.988-0.139,1.972-0.303,2.951-0.491V68.284L46.536,68.284z
		 M46.536,9.47v18.11c-0.553-0.288-1.072-0.643-1.541-1.074c-0.421-0.382-0.958-0.942-1.41-1.828v-9.931
		C44.226,12.836,45.207,11.001,46.536,9.47L46.536,9.47z M46.536,35.543v0.736c-0.227,0.017-0.445,0.026-0.655,0.026
		c-0.591,0-1.035-0.115-1.332-0.343c-0.296-0.229-0.445-0.574-0.445-1.035c0-0.074,0.003-0.147,0.009-0.216
		c0.007-0.071,0.018-0.139,0.034-0.208l0.149-0.838c0.037-0.212,0.069-0.38,0.094-0.502c0.023-0.124,0.039-0.203,0.044-0.24
		c0.005-0.037,0.016-0.069,0.03-0.095c0.012-0.027,0.029-0.048,0.045-0.064c0.016-0.016,0.037-0.027,0.064-0.034
		c0.026-0.005,0.058-0.009,0.095-0.009h0.511c0.059,0,0.103,0.012,0.135,0.039c0.03,0.026,0.046,0.067,0.046,0.12
		c0,0.006-0.025,0.154-0.073,0.443c-0.049,0.29-0.124,0.72-0.225,1.287c-0.011,0.053-0.02,0.104-0.025,0.152
		c-0.005,0.05-0.007,0.097-0.007,0.145c-0.002,0.159,0.037,0.285,0.114,0.38c0.078,0.096,0.202,0.163,0.376,0.205
		c0.172,0.042,0.399,0.062,0.681,0.062C46.309,35.551,46.421,35.548,46.536,35.543L46.536,35.543z M46.536,56.529v3.755
		c-0.969,0.171-1.952,0.32-2.951,0.447V57.02c0.226-0.031,0.451-0.064,0.675-0.098C45.028,56.804,45.786,56.672,46.536,56.529z
		 M43.585,68.614c-0.854,0.063-1.714,0.1-2.581,0.11v-5.718c0.862-0.085,1.723-0.185,2.581-0.307V68.614L43.585,68.614z
		 M43.585,14.747v9.931c-0.51-1.001-0.912-2.419-0.912-4.465C42.673,18.453,42.975,16.565,43.585,14.747L43.585,14.747z
		 M43.585,57.02v3.712c-0.849,0.107-1.71,0.197-2.581,0.273v-3.698C41.881,57.231,42.742,57.136,43.585,57.02L43.585,57.02z
		 M41.004,38.464v-0.741l0.039-0.01c0.25-0.064,0.52-0.163,0.807-0.296l0.788-4.487c0.016-0.069,0.045-0.122,0.087-0.157
		c0.043-0.037,0.1-0.055,0.168-0.055h0.522c0.067-0.002,0.112,0.014,0.131,0.046c0.021,0.031,0.03,0.088,0.028,0.166l-0.947,5.41
		c-0.007,0.06-0.036,0.11-0.083,0.15c-0.046,0.039-0.101,0.06-0.162,0.062h-0.5c-0.053,0-0.094-0.014-0.12-0.04
		c-0.027-0.028-0.039-0.071-0.039-0.13c0-0.005,0.002-0.028,0.007-0.069c0.005-0.04,0.014-0.095,0.025-0.164
		C41.501,38.283,41.251,38.387,41.004,38.464L41.004,38.464z M41.004,11.183V8.147c0.098,0.384,0.153,0.817,0.153,1.308
		C41.158,10.015,41.104,10.547,41.004,11.183z M41.004,68.724c-1.667,0.018-3.358-0.063-5.069-0.249v-5.183
		c1.691-0.023,3.383-0.12,5.069-0.286V68.724L41.004,68.724z M41.004,8.147v3.036c-0.074,0.472-0.173,1.002-0.294,1.642
		l-1.263,6.942c-0.529,2.842-0.733,4.709-0.815,5.927c-0.082,1.258-1.141,2.192-2.363,2.192c-0.122,0-0.204,0-0.326,0h-0.009v-8.989
		l0.661-3.759c0.244-1.421,0.489-2.963,0.489-3.816c0-1.803-0.413-2.453-1.149-2.626V5.401c0.289-0.055,0.591-0.087,0.905-0.087
		C38.001,5.314,40.379,5.709,41.004,8.147L41.004,8.147z M41.004,37.723v0.741c-0.049,0.016-0.097,0.03-0.146,0.043
		c-0.293,0.079-0.584,0.12-0.871,0.12c-0.325-0.002-0.601-0.067-0.834-0.198c-0.231-0.133-0.408-0.324-0.532-0.573
		c-0.125-0.249-0.187-0.55-0.188-0.905c0-0.201,0.021-0.414,0.063-0.637l0.596-3.373c0.016-0.069,0.044-0.124,0.087-0.163
		c0.042-0.039,0.099-0.06,0.168-0.06h0.511c0.059,0,0.103,0.012,0.135,0.039c0.03,0.026,0.046,0.067,0.046,0.12
		c0,0.006-0.014,0.085-0.041,0.237c-0.027,0.153-0.066,0.378-0.119,0.675l-0.468,2.631c-0.042,0.233-0.064,0.434-0.064,0.605
		c-0.002,0.187,0.03,0.337,0.094,0.452c0.064,0.117,0.167,0.202,0.312,0.254c0.145,0.053,0.341,0.078,0.584,0.078
		C40.546,37.81,40.767,37.782,41.004,37.723L41.004,37.723z M41.004,57.306v3.698c-1.651,0.142-3.341,0.225-5.069,0.249V57.52
		C37.667,57.519,39.362,57.448,41.004,57.306L41.004,57.306z M35.935,35.826v-3.107h2.288c0.078-0.002,0.128,0.014,0.151,0.046
		c0.023,0.031,0.032,0.088,0.03,0.166l-0.053,0.35c-0.016,0.069-0.042,0.122-0.082,0.157c-0.041,0.035-0.094,0.055-0.163,0.055
		H36.35L35.935,35.826z M35.935,68.475c-1.948-0.213-3.923-0.562-5.921-1.05v-4.354c1.964,0.173,3.941,0.247,5.921,0.22V68.475
		L35.935,68.475z M35.935,5.401v3.296c-0.159-0.038-0.333-0.053-0.521-0.053c-1.645,0-3.809,0.89-5.4,3.76v-1.4
		c0.733-1.257,1.811-2.934,2.711-3.862C33.106,6.762,34.309,5.71,35.935,5.401L35.935,5.401z M35.935,18.898v8.989
		c-1.013,0.034-1.661-0.978-1.417-1.949c0.244-0.812,0.489-1.908,0.815-3.614L35.935,18.898L35.935,18.898z M35.935,32.719v3.107
		l-0.447,2.514c-0.016,0.069-0.042,0.122-0.082,0.158c-0.041,0.037-0.094,0.054-0.163,0.054h-0.511
		c-0.059,0-0.103-0.017-0.135-0.054c-0.03-0.036-0.046-0.089-0.046-0.158l0.862-4.847h-1.756c-0.064,0-0.112-0.014-0.144-0.041
		c-0.032-0.028-0.048-0.071-0.048-0.13c0-0.005,0.004-0.028,0.009-0.07c0.007-0.041,0.018-0.099,0.034-0.173
		c0.016-0.08,0.032-0.143,0.048-0.193c0.016-0.048,0.032-0.083,0.048-0.104c0.016-0.021,0.039-0.037,0.069-0.048
		c0.03-0.01,0.064-0.016,0.101-0.016H35.935L35.935,32.719z M35.935,57.52v3.734c-0.337,0.005-0.673,0.01-1.012,0.01
		c-1.647,0-3.285-0.074-4.909-0.221v-3.779C32.017,57.434,33.999,57.521,35.935,57.52L35.935,57.52z M30.014,35.975V35.18h1.496
		l0.255-1.464c0.048-0.27,0.084-0.477,0.107-0.62c0.023-0.143,0.037-0.222,0.042-0.238c0.01-0.032,0.032-0.064,0.064-0.096
		c0.016-0.016,0.039-0.027,0.069-0.034c0.03-0.005,0.064-0.009,0.101-0.009h0.511c0.068-0.002,0.116,0.014,0.142,0.046
		c0.027,0.031,0.041,0.088,0.039,0.166l-0.958,5.41c-0.016,0.069-0.043,0.122-0.081,0.158c-0.041,0.037-0.094,0.054-0.163,0.054
		h-0.511c-0.128,0-0.192-0.053-0.192-0.159c0-0.005,0.036-0.211,0.105-0.613c0.071-0.403,0.177-1.005,0.321-1.805H30.014z
		 M30.014,67.425c-1.834-0.448-3.688-1.015-5.559-1.703v-3.421c1.834,0.348,3.69,0.606,5.559,0.77V67.425L30.014,67.425z
		 M30.014,11.003v1.4c-0.3,0.541-0.58,1.153-0.833,1.843c-1.222,3.41-1.997,9.256-2.2,11.57c-0.122,1.177-1.182,2.03-2.363,2.03
		c-0.055,0-0.109-0.002-0.163-0.007v-9.727l0.204-1.187c0.489-2.801,0.733-4.506,0.733-5.602c0-1.531-0.076-2.335-0.938-2.61V5.34
		c0.16-0.017,0.323-0.025,0.489-0.025c4.277,0,4.277,5.318,4.441,6.82C29.535,11.846,29.753,11.452,30.014,11.003L30.014,11.003z
		 M30.014,35.18v0.796H28.54l-0.266,1.516c-0.048,0.286-0.087,0.506-0.117,0.66c-0.03,0.152-0.048,0.237-0.053,0.253
		c-0.005,0.016-0.013,0.034-0.023,0.053c-0.011,0.02-0.024,0.037-0.041,0.053c-0.016,0.016-0.037,0.027-0.064,0.034
		c-0.027,0.006-0.059,0.009-0.096,0.009h-0.511c-0.067,0.002-0.115-0.014-0.142-0.045c-0.027-0.033-0.041-0.089-0.04-0.167
		l0.958-5.41c0.016-0.069,0.043-0.122,0.083-0.157c0.039-0.037,0.092-0.055,0.161-0.055h0.51c0.128,0,0.192,0.053,0.192,0.159
		c0,0.006-0.033,0.202-0.103,0.585c-0.067,0.386-0.168,0.959-0.302,1.717H30.014L30.014,35.18z M30.014,57.263v3.779
		c-1.873-0.168-3.728-0.433-5.559-0.789V56.58C26.314,56.878,28.173,57.107,30.014,57.263L30.014,57.263z M24.455,38.591v-0.825
		c0.129-0.03,0.253-0.077,0.371-0.14c0.236-0.124,0.438-0.318,0.61-0.583c0.17-0.263,0.298-0.606,0.382-1.025
		c0.064-0.318,0.112-0.594,0.143-0.826c0.032-0.233,0.048-0.42,0.048-0.564c0-0.387-0.098-0.679-0.295-0.873
		c-0.195-0.196-0.488-0.294-0.876-0.294c-0.133-0.001-0.26,0.012-0.383,0.04v-0.822c0.166-0.023,0.34-0.034,0.522-0.034
		c0.417,0.002,0.771,0.083,1.064,0.244c0.292,0.161,0.516,0.389,0.67,0.686c0.155,0.297,0.233,0.652,0.234,1.064
		c0,0.319-0.085,0.87-0.256,1.655c-0.08,0.388-0.199,0.727-0.358,1.019c-0.158,0.292-0.355,0.535-0.589,0.732
		c-0.234,0.196-0.502,0.343-0.805,0.438C24.786,38.531,24.625,38.567,24.455,38.591z M24.455,65.722
		c-2.062-0.759-4.143-1.666-6.24-2.727v-2.269c2.039,0.649,4.124,1.173,6.24,1.575V65.722L24.455,65.722z M24.455,5.34v3.373
		c-0.235-0.075-0.529-0.11-0.896-0.11c-2.059,0-4.028,1.371-5.344,3.933v-1.419c0.713-1.301,1.719-3.053,2.615-3.976
		C21.205,6.73,22.614,5.529,24.455,5.34L24.455,5.34z M24.455,18.113v9.727c-1.023-0.087-1.819-0.978-1.547-1.942
		c0.326-1.218,0.692-2.964,1.263-6.13L24.455,18.113L24.455,18.113z M24.455,32.679v0.822c-0.132,0.029-0.258,0.075-0.38,0.137
		c-0.234,0.118-0.436,0.314-0.607,0.583c-0.17,0.271-0.299,0.628-0.386,1.075c-0.128,0.668-0.192,1.124-0.192,1.368
		c0,0.382,0.098,0.668,0.295,0.86c0.195,0.191,0.488,0.286,0.876,0.286c0.136,0.001,0.267-0.014,0.393-0.044v0.825
		c-0.169,0.024-0.346,0.036-0.532,0.036c-0.41-0.002-0.759-0.085-1.052-0.246c-0.291-0.162-0.514-0.394-0.671-0.693
		c-0.156-0.299-0.234-0.654-0.236-1.066c0-0.16,0.021-0.377,0.062-0.651c0.043-0.276,0.103-0.607,0.183-0.994
		c0.085-0.393,0.207-0.735,0.365-1.027c0.16-0.292,0.353-0.532,0.582-0.722c0.234-0.197,0.504-0.343,0.807-0.439
		C24.119,32.74,24.283,32.703,24.455,32.679L24.455,32.679z M24.455,56.58v3.674c-2.116-0.412-4.199-0.948-6.24-1.601v-3.337
		C20.277,55.823,22.366,56.245,24.455,56.58L24.455,56.58z M18.215,38.552v-0.806h1.453l-0.404-4.074
		c-0.005-0.063-0.021-0.111-0.05-0.143c-0.027-0.032-0.067-0.048-0.121-0.048c-0.048,0-0.092,0.016-0.135,0.048
		c-0.04,0.031-0.078,0.08-0.11,0.143l-0.633,1.41v-1.998c0.025-0.031,0.05-0.061,0.076-0.089c0.111-0.118,0.247-0.207,0.401-0.265
		c0.154-0.058,0.339-0.086,0.55-0.086c0.282,0,0.499,0.066,0.649,0.198c0.151,0.132,0.239,0.332,0.266,0.598l0.458,4.306h0.489
		c0.064,0,0.112,0.012,0.144,0.039c0.032,0.024,0.048,0.062,0.048,0.109c0,0.005-0.005,0.048-0.018,0.125
		c-0.011,0.076-0.03,0.188-0.057,0.33l-0.149,0.817c-0.021,0.122-0.039,0.217-0.055,0.286c-0.014,0.069-0.025,0.111-0.03,0.128
		c-0.006,0.015-0.015,0.031-0.025,0.046c-0.012,0.015-0.028,0.028-0.05,0.038c-0.016,0.016-0.037,0.027-0.062,0.034
		c-0.027,0.006-0.055,0.009-0.087,0.009h-0.5c-0.058,0-0.103-0.012-0.135-0.038c-0.03-0.025-0.046-0.062-0.046-0.11
		c0-0.011,0.016-0.101,0.046-0.269c0.032-0.17,0.076-0.415,0.135-0.739H18.215L18.215,38.552z M18.215,9.152
		c0.135-0.67,0.255-1.252,0.334-1.565c0.088-0.438-0.059-0.815-0.334-1.086V9.152z M18.215,62.995
		c-0.955-0.483-1.912-0.995-2.872-1.542v-1.738c0.946,0.365,1.904,0.702,2.872,1.011V62.995L18.215,62.995z M18.215,6.501v2.651
		c-0.216,1.073-0.469,2.371-0.644,3.146c0.163-0.293,0.384-0.707,0.644-1.181v1.419c-0.22,0.429-0.422,0.891-0.603,1.385
		c-0.978,2.761-1.996,9.216-2.24,11.854c-0.005,0.078-0.015,0.154-0.029,0.229V6.276c0.049-0.012,0.099-0.022,0.151-0.028
		c0.448-0.041,0.855-0.122,1.222-0.163C17.272,5.971,17.854,6.144,18.215,6.501L18.215,6.501z M18.215,33.085v1.998l-1.198,2.664
		h1.198v0.806H16.23c-0.059,0.319-0.101,0.563-0.129,0.731c-0.03,0.169-0.046,0.261-0.052,0.278
		c-0.006,0.016-0.015,0.032-0.025,0.048c-0.012,0.016-0.029,0.031-0.05,0.048c-0.016,0.016-0.039,0.028-0.069,0.039
		c-0.031,0.009-0.064,0.014-0.101,0.014h-0.462v-1.342l0.015-0.079c0.021-0.127,0.039-0.226,0.055-0.295
		c0.014-0.071,0.025-0.113,0.03-0.129c0.006-0.016,0.016-0.032,0.031-0.047c0.012-0.016,0.028-0.028,0.044-0.039
		c0.016-0.01,0.037-0.017,0.062-0.023c0.027-0.005,0.055-0.009,0.087-0.009h0.341l1.99-4.296
		C18.061,33.31,18.134,33.187,18.215,33.085L18.215,33.085z M18.215,55.315v3.337c-0.967-0.31-1.925-0.645-2.872-1.008v-3.097
		C16.293,54.822,17.251,55.078,18.215,55.315L18.215,55.315z M15.343,36.075c0.139-0.67,0.209-1.148,0.209-1.436
		c-0.002-0.388-0.071-0.726-0.209-1.013V36.075z M15.343,61.453c-0.759-0.433-1.52-0.892-2.282-1.365v-1.324
		c0.752,0.335,1.512,0.654,2.282,0.951V61.453L15.343,61.453z M15.343,6.276v19.728c-0.193,1.059-1.183,1.836-2.282,1.842V16.658
		l0.803-4.564c0.326-1.705,0.408-2.842,0.366-3.614C14.192,7.52,14.482,6.487,15.343,6.276L15.343,6.276z M15.343,33.625v2.449
		l-0.047,0.218c-0.08,0.388-0.199,0.727-0.358,1.019c-0.158,0.292-0.355,0.535-0.589,0.732c-0.234,0.196-0.502,0.343-0.805,0.438
		c-0.152,0.049-0.313,0.085-0.482,0.109v-0.825c0.129-0.031,0.252-0.077,0.371-0.14c0.236-0.124,0.438-0.318,0.61-0.583
		c0.17-0.263,0.298-0.606,0.381-1.025c0.064-0.318,0.112-0.594,0.144-0.826c0.032-0.233,0.048-0.42,0.048-0.564
		c0-0.387-0.098-0.679-0.294-0.873c-0.195-0.196-0.488-0.294-0.877-0.294c-0.132-0.001-0.26,0.012-0.383,0.04v-0.822
		c0.165-0.023,0.339-0.034,0.521-0.034c0.417,0.002,0.772,0.083,1.064,0.244c0.293,0.161,0.516,0.389,0.671,0.686L15.343,33.625
		L15.343,33.625z M15.343,38.366l-0.135,0.727c-0.026,0.149-0.046,0.262-0.057,0.342c-0.012,0.078-0.018,0.12-0.018,0.125
		c0,0.048,0.014,0.085,0.041,0.11c0.028,0.026,0.071,0.038,0.13,0.038h0.038V38.366L15.343,38.366z M15.343,54.548v3.097
		c-0.768-0.294-1.528-0.606-2.282-0.933v-2.864C13.815,54.092,14.576,54.326,15.343,54.548z M13.061,60.088
		c-0.812-0.504-1.626-1.028-2.442-1.579v-0.915c0.803,0.413,1.617,0.803,2.442,1.17V60.088L13.061,60.088z M13.061,16.658v11.188
		H13.05c-0.082,0-0.204,0-0.326,0c-0.978,0.041-1.711-0.893-1.426-1.867c0.245-0.893,0.448-1.948,0.774-3.694L13.061,16.658
		L13.061,16.658z M13.061,32.679v0.822c-0.132,0.03-0.258,0.076-0.38,0.138c-0.234,0.118-0.437,0.314-0.607,0.583
		c-0.17,0.271-0.3,0.628-0.387,1.075c-0.128,0.668-0.191,1.124-0.191,1.368c0,0.382,0.098,0.668,0.294,0.86
		c0.195,0.191,0.488,0.286,0.877,0.286c0.136,0.001,0.267-0.014,0.394-0.044v0.825c-0.169,0.024-0.346,0.036-0.532,0.036
		c-0.41-0.002-0.759-0.085-1.052-0.246c-0.291-0.162-0.514-0.394-0.671-0.693c-0.086-0.164-0.148-0.345-0.187-0.544v-1.083
		l0.013-0.09c0.043-0.276,0.103-0.607,0.183-0.994c0.085-0.393,0.208-0.735,0.365-1.027c0.16-0.292,0.353-0.532,0.582-0.722
		c0.234-0.197,0.504-0.343,0.807-0.439C12.725,32.74,12.889,32.703,13.061,32.679L13.061,32.679z M13.061,53.847v2.864
		c-0.823-0.358-1.637-0.736-2.442-1.134v-2.574C11.424,53.298,12.238,53.58,13.061,53.847L13.061,53.847z M10.62,33.254l0.049-0.323
		c0.002-0.078-0.007-0.135-0.03-0.166c-0.005-0.007-0.011-0.013-0.019-0.019V33.254z M10.62,58.509
		c-0.805-0.544-1.612-1.116-2.42-1.706v-0.545c0.793,0.469,1.601,0.914,2.42,1.336V58.509L10.62,58.509z M10.62,32.746v0.508
		l-0.004,0.027c-0.016,0.069-0.042,0.122-0.082,0.157c-0.041,0.035-0.094,0.055-0.163,0.055H8.615l-0.415,2.335v-3.109h2.288
		C10.549,32.717,10.593,32.726,10.62,32.746L10.62,32.746z M10.62,36.061v1.083c-0.032-0.163-0.048-0.336-0.049-0.522
		C10.571,36.481,10.587,36.294,10.62,36.061L10.62,36.061z M10.62,53.003v2.574c-0.817-0.404-1.624-0.829-2.42-1.273v-2.245
		C8.994,52.388,9.802,52.702,10.62,53.003L10.62,53.003z M8.199,19.796V6.923c1.057,1.123,1.66,2.872,1.66,5.211l0,0
		C9.859,14.536,9.265,17.298,8.199,19.796z M8.199,56.803c-1.523-1.113-3.051-2.309-4.581-3.587v-0.064
		c1.467,1.132,2.997,2.167,4.581,3.106V56.803L8.199,56.803z M8.199,6.923v12.873c-0.826,1.938-1.935,3.716-3.269,5.046
		c-0.412,0.41-0.851,0.793-1.312,1.143v-4.137c1.594-2.797,2.086-6.517,2.086-8.536c0-1.835-0.618-3.497-2.086-4.142V5.482
		c0.273-0.029,0.56-0.045,0.864-0.045C6.003,5.436,7.275,5.94,8.199,6.923L8.199,6.923z M8.199,32.719v3.109L7.752,38.34
		c-0.016,0.069-0.042,0.122-0.082,0.158c-0.041,0.037-0.094,0.054-0.163,0.054H6.997c-0.059,0-0.103-0.017-0.135-0.054
		c-0.03-0.036-0.046-0.089-0.046-0.158l0.862-4.847H5.922c-0.064,0-0.112-0.014-0.143-0.041c-0.032-0.028-0.048-0.071-0.048-0.13
		c0-0.005,0.003-0.028,0.009-0.07c0.007-0.041,0.018-0.099,0.033-0.173c0.016-0.08,0.032-0.143,0.048-0.193
		c0.016-0.048,0.032-0.083,0.048-0.104c0.016-0.021,0.039-0.037,0.069-0.048c0.03-0.01,0.064-0.016,0.101-0.016H8.199L8.199,32.719z
		 M8.199,52.058c-1.581-0.655-3.114-1.364-4.581-2.129v1.512c1.48,1.03,3.009,1.985,4.581,2.863V52.058L8.199,52.058z M3.618,38.195
		v-1.497c0.077-0.2,0.144-0.431,0.199-0.692c0.069-0.344,0.123-0.64,0.158-0.884c0.037-0.246,0.055-0.441,0.055-0.59
		c0.001-0.385-0.091-0.664-0.279-0.841c-0.04-0.038-0.084-0.072-0.133-0.102v-0.882c0.168,0.038,0.321,0.095,0.459,0.168
		c0.285,0.153,0.504,0.375,0.653,0.665c0.149,0.288,0.225,0.637,0.225,1.045c0,0.175-0.023,0.409-0.071,0.7
		c-0.046,0.292-0.115,0.642-0.205,1.05c-0.091,0.403-0.211,0.752-0.362,1.043c-0.151,0.292-0.335,0.527-0.554,0.707
		C3.717,38.124,3.668,38.161,3.618,38.195z M3.618,53.216c-0.445-0.373-0.891-0.748-1.337-1.135
		c0.439,0.368,0.886,0.723,1.337,1.071V53.216L3.618,53.216z M3.618,5.482v3.689c-0.416-0.182-0.9-0.283-1.458-0.283
		c-0.891,0-1.782,0.313-2.626,0.904V7.344c0.203-0.196,0.413-0.373,0.63-0.528C0.591,6.497,1.733,5.683,3.618,5.482L3.618,5.482z
		 M3.618,21.848v4.137c-1.226,0.93-2.612,1.632-4.084,2.027v-2.625c1.618-0.487,2.546-1.445,3.074-2.088
		C2.986,22.859,3.321,22.37,3.618,21.848L3.618,21.848z M3.618,32.708v0.882c-0.18-0.109-0.422-0.163-0.727-0.16
		c-0.213,0-0.426,0.007-0.637,0.025c-0.211,0.017-0.422,0.044-0.629,0.081l-0.735,4.2c0.197,0.037,0.399,0.064,0.605,0.081
		c0.204,0.016,0.412,0.025,0.619,0.025c0.273,0.004,0.521-0.055,0.742-0.171c0.221-0.117,0.413-0.311,0.574-0.58
		c0.069-0.114,0.131-0.245,0.188-0.392v1.497c-0.42,0.287-0.968,0.432-1.643,0.432c-0.197,0-0.396-0.011-0.6-0.03
		c-0.204-0.021-0.411-0.05-0.624-0.087l-0.224,1.242c-0.037,0.234-0.069,0.411-0.092,0.533c-0.024,0.124-0.041,0.193-0.046,0.209
		c-0.006,0.016-0.014,0.03-0.027,0.042c-0.012,0.012-0.032,0.026-0.059,0.042c-0.021,0.016-0.042,0.028-0.065,0.039
		c-0.021,0.009-0.046,0.014-0.073,0.014h-0.543c-0.036,0-0.066-0.008-0.089-0.023v-0.518l1.228-6.958
		c0.006-0.048,0.02-0.088,0.039-0.12c0.02-0.032,0.046-0.055,0.078-0.071c0.037-0.021,0.123-0.048,0.255-0.078
		c0.133-0.031,0.314-0.065,0.543-0.102c0.234-0.037,0.463-0.066,0.688-0.087c0.226-0.019,0.445-0.03,0.663-0.03
		C3.242,32.645,3.439,32.667,3.618,32.708L3.618,32.708z M3.618,49.929v1.512c-1.407-0.979-2.77-2.025-4.084-3.136v-0.761
		C0.825,48.39,2.191,49.185,3.618,49.929L3.618,49.929z M-0.466,35.264c0.04-0.263,0.06-0.472,0.06-0.626
		c-0.001-0.205-0.021-0.397-0.06-0.574V35.264z M-0.466,7.344v2.447c-0.715,0.501-1.397,1.201-2.017,2.08v-1.76
		C-1.904,9.1-1.236,8.089-0.466,7.344L-0.466,7.344z M-0.466,25.387v2.625c-0.657,0.176-1.332,0.292-2.017,0.338v-2.658
		C-1.713,25.675-1.045,25.561-0.466,25.387L-0.466,25.387z M-0.466,34.064v1.199c-0.042,0.28-0.108,0.624-0.196,1.029
		c-0.08,0.388-0.199,0.727-0.359,1.019c-0.158,0.292-0.354,0.535-0.589,0.732c-0.234,0.196-0.502,0.343-0.805,0.438
		c-0.023,0.007-0.046,0.014-0.069,0.021v-0.901c0.218-0.124,0.406-0.311,0.567-0.559c0.17-0.263,0.298-0.606,0.381-1.025
		c0.064-0.318,0.112-0.594,0.143-0.826c0.032-0.233,0.048-0.42,0.048-0.564c0-0.387-0.098-0.679-0.295-0.873
		c-0.19-0.191-0.473-0.288-0.845-0.293v-0.816c0.036-0.001,0.072-0.001,0.108-0.001c0.417,0.002,0.771,0.083,1.064,0.244
		c0.292,0.161,0.516,0.389,0.67,0.686C-0.563,33.723-0.505,33.887-0.466,34.064L-0.466,34.064z M-0.466,40.091v0.518
		c-0.008-0.005-0.015-0.011-0.021-0.018c-0.025-0.027-0.039-0.065-0.039-0.118V40.43L-0.466,40.091L-0.466,40.091z M-0.466,47.544
		v0.761c-0.686-0.58-1.359-1.179-2.017-1.794v-0.377C-1.833,46.618-1.161,47.089-0.466,47.544z M-2.483,10.112v1.76
		c-0.824,1.168-1.539,2.652-2.079,4.404c-0.733,2.396-1.507,6.658-1.833,8.404c0.855,0.447,1.874,1.015,3.707,1.015
		c0.069,0,0.137-0.001,0.205-0.003v2.658c-0.23,0.016-0.461,0.024-0.694,0.024c-0.855,0-2.118-0.122-3.829-0.487l-0.937,5.155
		c-0.245,1.422-0.367,2.436-0.448,3.207c-0.123,1.177-0.978,2.233-2.159,2.152c-0.122,0-0.245,0-0.367,0
		c-0.505,0-0.989-0.199-1.315-0.519v-2.616c0.382-1.578,0.726-3.398,1.071-5.147l2.566-13.275c0.326-1.746,0.489-2.761,0.814-4.75
		c0.326-1.827,0.408-3.045,0.326-3.898C-7.535,7.344-7.25,6.37-6.394,6.289c0.611-0.041,1.1-0.122,1.507-0.203
		c1.018-0.163,1.955,0.609,1.752,1.583l-1.182,5.806C-3.841,12.752-3.238,11.432-2.483,10.112L-2.483,10.112z M-2.483,32.646
		c-0.33,0.009-0.632,0.056-0.905,0.143c-0.303,0.096-0.573,0.242-0.807,0.439c-0.229,0.19-0.423,0.431-0.582,0.722
		c-0.158,0.292-0.28,0.635-0.365,1.027c-0.08,0.387-0.14,0.718-0.183,0.994c-0.041,0.274-0.062,0.491-0.062,0.651
		c0.002,0.412,0.08,0.767,0.236,1.066c0.156,0.299,0.38,0.531,0.67,0.693c0.293,0.161,0.642,0.244,1.052,0.246
		c0.344,0,0.66-0.041,0.946-0.124v-0.901l-0.043,0.024c-0.234,0.124-0.49,0.186-0.764,0.184c-0.388,0-0.681-0.095-0.876-0.286
		c-0.197-0.191-0.295-0.477-0.295-0.86c0-0.243,0.064-0.7,0.192-1.368c0.087-0.447,0.216-0.804,0.387-1.075
		c0.171-0.269,0.373-0.465,0.607-0.583c0.234-0.121,0.488-0.179,0.763-0.177l0.031,0.001V32.646L-2.483,32.646z M-2.483,46.134
		v0.377c-0.709-0.662-1.402-1.344-2.077-2.046C-3.9,45.04-3.205,45.595-2.483,46.134L-2.483,46.134z M-12.232,16.79
		c0.273-1.286,0.407-2.551,0.407-3.721c0-0.696-0.027-1.816-0.407-2.996V16.79z M-12.232,10.073v6.717
		c-1.071,5.041-4.288,10.395-10.022,11.528v-2.631c5.474-1.767,6.273-11.019,6.273-12.78c0-0.934-0.04-2.598-1.344-3.816
		c-0.489-0.446-1.466-1.096-3.096-1.096c-0.661,0-1.27,0.099-1.833,0.278V5.633c0.771-0.154,1.585-0.237,2.444-0.237
		c2.566,0,4.644,0.69,5.988,2.071C-13,8.267-12.517,9.187-12.232,10.073L-12.232,10.073z M-12.232,35.266v2.616
		c-0.331-0.325-0.498-0.775-0.355-1.267C-12.464,36.193-12.346,35.741-12.232,35.266z M-22.254,5.633v2.639
		c-4.989,1.585-6.273,9.548-6.273,12.429c0,3.856,2.036,5.278,4.358,5.278c0.695,0,1.331-0.104,1.915-0.293v2.631
		c-0.721,0.142-1.48,0.219-2.282,0.219c-2.118,0-4.195-0.609-5.743-2.029c-0.896-0.812-2.322-2.436-2.322-6.293
		C-32.6,14.328-29.231,7.028-22.254,5.633z"/>
</g>
</svg>
