<?xml version="1.0" encoding="utf-8"?>
<!-- Generator: Adobe Illustrator 19.0.0, SVG Export Plug-In . SVG Version: 6.00 Build 0)  -->
<svg version="1.1" id="Слой_1" xmlns="http://www.w3.org/2000/svg" xmlns:xlink="http://www.w3.org/1999/xlink" x="0px" y="0px"
	 width="79.188px" height="79.188px" viewBox="0 0 79.188 79.188" enable-background="new 0 0 79.188 79.188" xml:space="preserve">
<path id="XMLID_23_" fill-rule="evenodd" clip-rule="evenodd" fill="#FFFFFF" d="M39.594,0c21.867,0,39.594,17.727,39.594,39.594
	c0,21.867-17.727,39.593-39.594,39.593S0,61.461,0,39.594C0,17.727,17.727,0,39.594,0z"/>
<path id="XMLID_25_" fill="#009999" d="M40.005,54.416c6.42,0,10.77-4.183,10.77-9.675c0-5.999-4.519-9.168-9.587-9.168
	c-3.083,0-5.913,1.732-7.222,3.633c-0.042-0.211-0.042-0.38-0.042-0.591c0-4.478,2.914-7.985,7.053-7.985
	c2.492,0,4.097,0.76,5.617,2.197l2.703-4.605c-2.027-1.732-4.899-2.915-8.32-2.915c-8.32,0-13.135,6.042-13.135,14.576
	C27.841,47.825,31.431,54.416,40.005,54.416z M39.667,49.093c-3.928,0-5.448-3-5.702-5.704c1.352-1.69,3.379-2.662,5.491-2.662
	c2.703,0,5.237,1.267,5.237,4.225C44.693,46.938,42.919,49.093,39.667,49.093z"/>
<path id="XMLID_19_" display="none" fill-rule="evenodd" clip-rule="evenodd" fill="#FFFFFF" d="M39.594,0
	c21.867,0,39.594,17.727,39.594,39.594c0,21.867-17.727,39.593-39.594,39.593C17.727,79.188,0,61.461,0,39.594
	C0,17.727,17.727,0,39.594,0z"/>
<path id="XMLID_21_" display="none" fill="#009999" d="M39.315,54.416c6.8,0,11.277-3.76,11.277-9.76
	c0-5.704-4.266-9.126-9.038-9.126c-2.576,0-4.857,1.014-6.209,2.366V31.01h13.346v-5.281H29.348V41.91l4.181,1.098
	c1.689-1.605,3.59-2.281,5.913-2.281c3.21,0,5.068,1.69,5.068,4.183c0,2.281-1.901,4.183-5.237,4.183
	c-2.956,0-5.575-1.098-7.476-3.084l-3.337,4.183C30.868,52.811,34.416,54.416,39.315,54.416z"/>
<path id="XMLID_14_" display="none" fill-rule="evenodd" clip-rule="evenodd" fill="#FFFFFF" d="M39.594,0
	c21.867,0,39.594,17.734,39.594,39.61c0,21.875-17.727,39.609-39.594,39.609S0,61.485,0,39.61C0,17.734,17.727,0,39.594,0z"/>
<path id="XMLID_16_" display="none" fill="#009999" d="M46.918,53.806v-5.83h3.632v-5.281h-3.632V25.625H38.64L27.447,43.243v4.732
	H40.92v5.83H46.918z M40.92,42.694h-7.602l7.602-11.745V42.694z"/>
<path id="XMLID_10_" display="none" fill-rule="evenodd" clip-rule="evenodd" fill="#FFFFFF" d="M39.594,0
	c21.867,0,39.594,17.727,39.594,39.593c0,21.867-17.727,39.594-39.594,39.594S0,61.461,0,39.593C0,17.727,17.727,0,39.594,0z"/>
<path id="XMLID_12_" display="none" fill="#009999" d="M40.117,54.302c6.758,0,11.108-3.422,11.108-8.281
	c0-4.225-3.717-6.464-6.589-6.76c3.125-0.549,6.166-2.873,6.166-6.422c0-4.69-4.055-7.647-10.643-7.647
	c-4.942,0-8.489,1.901-10.77,4.478l2.999,3.76c1.985-1.901,4.435-2.915,7.138-2.915c2.956,0,5.237,1.099,5.237,3.338
	c0,2.07-2.069,3-5.195,3c-1.056,0-2.999,0-3.506-0.042v5.408c0.422-0.042,2.323-0.084,3.506-0.084c3.928,0,5.66,1.014,5.66,3.253
	c0,2.112-1.901,3.591-5.322,3.591c-2.745,0-5.828-1.183-7.771-3.211l-3.125,4.014C31.079,52.317,34.922,54.302,40.117,54.302z"/>
<path id="XMLID_6_" display="none" fill-rule="evenodd" clip-rule="evenodd" fill="#FFFFFF" d="M39.594,0
	c21.867,0,39.594,17.727,39.594,39.593c0,21.867-17.727,39.594-39.594,39.594S0,61.461,0,39.593C0,17.727,17.727,0,39.594,0z"/>
<path id="XMLID_8_" display="none" fill="#009999" d="M51.352,53.681V48.4H39.863c7.307-5.323,11.277-9.506,11.277-14.322
	c0-5.619-4.773-8.999-10.77-8.999c-3.928,0-8.109,1.436-10.855,4.605l3.421,3.972c1.901-1.986,4.35-3.253,7.56-3.253
	c2.323,0,4.561,1.225,4.561,3.676c0,3.464-3.379,6.38-14.909,14.914v4.69H51.352z"/>
<path id="XMLID_2_" display="none" fill-rule="evenodd" clip-rule="evenodd" fill="#FFFFFF" d="M39.594,0
	c21.867,0,39.594,17.727,39.594,39.593c0,21.867-17.727,39.594-39.594,39.594C17.727,79.188,0,61.461,0,39.593
	C0,17.727,17.727,0,39.594,0z"/>
<path id="XMLID_4_" display="none" fill="#009999" d="M44.486,54.681v-28.18h-5.237l-8.869,8.915l3.421,3.591l4.688-4.774v20.449
	H44.486z"/>
</svg>
